<svg width="1643" height="1430" viewBox="0 0 1643 1430" fill="none" xmlns="http://www.w3.org/2000/svg">
<path d="M467.327 656.519L588.256 1093.72L144 974.681L467.327 656.519Z" fill="#FF5C00"/>
<path d="M10 3C29.667 71.3502 94.863 225.655 198.311 296.072C327.622 384.094 423.006 390.095 420.548 646.659C418.09 903.222 100.468 865.713 102.926 646.659C105.385 427.605 401.87 456.82 480.5 601.5C618 854.5 406.781 1119.78 871.905 1334.33C1244 1505.97 1535.01 1209.13 1634 1039.26" stroke="white" stroke-width="20"/>
<rect width="286.015" height="286.015" transform="matrix(-0.707107 0.707107 0.707107 0.707107 229.243 149)" fill="#FF0000"/>
<rect width="286" height="286" transform="matrix(-4.37114e-08 1 1 4.37114e-08 1288 1035)" fill="#FF0000"/>
<ellipse cx="941" cy="1288" rx="143" ry="142" fill="#FFB100"/>
</svg>
