<svg width="669" height="520" viewBox="0 0 669 520" fill="none" xmlns="http://www.w3.org/2000/svg">
<text fill="#0F0F0F" xml:space="preserve" style="white-space: pre" font-family="Red Hat Text" font-size="30" font-weight="bold" letter-spacing="0em"><tspan x="0.442383" y="24">I find social media to be very time-consuming</tspan></text>
<text fill="#0F0F0F" xml:space="preserve" style="white-space: pre" font-family="Red Hat Text" font-size="20" letter-spacing="0em"><tspan x="335" y="89">Strongly disagree 4.2%</tspan></text>
<text fill="#0F0F0F" xml:space="preserve" style="white-space: pre" font-family="Red Hat Text" font-size="20" letter-spacing="0em"><tspan x="518" y="161">Disagree </tspan><tspan x="518" y="187">15.8%</tspan></text>
<text fill="#0F0F0F" xml:space="preserve" style="white-space: pre" font-family="Red Hat Text" font-size="20" letter-spacing="0em"><tspan x="518" y="396">Agree 46.9%</tspan></text>
<text fill="#0F0F0F" xml:space="preserve" style="white-space: pre" font-family="Red Hat Text" font-size="20" letter-spacing="0em"><tspan x="92.8203" y="89">Strongly agree 33.3%</tspan></text>
<path d="M334.491 297.463V129C349.213 129 363.872 130.93 378.093 134.74L334.491 297.463Z" fill="white"/>
<path d="M334.491 297.463L378.093 134.74C432.439 149.303 475.929 190.035 494.014 243.313L334.491 297.463Z" fill="#FFB100"/>
<path d="M334.491 297.463L494.014 243.312C523.92 331.414 476.744 427.079 388.642 456.986C312.537 482.82 228.782 451.296 188.598 381.695L334.491 297.463Z" fill="#FF5C00"/>
<path d="M334.491 297.463L188.598 381.695C142.078 301.12 169.685 198.09 250.26 151.57C275.869 136.784 304.92 129 334.491 129V297.463Z" fill="#FF0000"/>
<text fill="#0F0F0F" xml:space="preserve" style="white-space: pre" font-family="Red Hat Text" font-size="20" letter-spacing="0em"><tspan x="397.029" y="513"> participants</tspan></text>
<text fill="#0F0F0F" xml:space="preserve" style="white-space: pre" font-family="Red Hat Text" font-size="20" letter-spacing="0em" text-decoration="underline"><tspan x="339.1" y="513">survey</tspan></text>
<text fill="#0F0F0F" xml:space="preserve" style="white-space: pre" font-family="Red Hat Text" font-size="20" letter-spacing="0em"><tspan x="161.561" y="513">Results from 96/97 </tspan></text>
</svg>
