<svg width="795" height="334" viewBox="0 0 795 334" fill="none" xmlns="http://www.w3.org/2000/svg">
<path d="M3.97699 69.8827L10.4946 46.5289L13.449 46.1709L25.293 67.2994L22.6246 67.6228L18.982 60.9727L8.49873 62.2432L6.5184 69.5747L3.97699 69.8827ZM9.10236 60.0426L17.8702 58.98L12.1658 48.615L9.10236 60.0426ZM27.4123 67.0426L25.4835 51.127L27.8343 50.8421L28.0614 52.7164C29.1338 51.1037 30.7184 50.1703 32.815 49.9162C34.0222 49.7699 35.1132 49.9063 36.088 50.3254C37.0815 50.7207 37.8888 51.3535 38.51 52.2238C39.1499 53.0703 39.5442 54.1077 39.6931 55.3361L40.9135 65.4064L38.5945 65.6874L37.4318 56.0936C37.2598 54.6747 36.7227 53.6116 35.8204 52.9043C34.9367 52.1733 33.8065 51.8912 32.4299 52.0581C31.4769 52.1736 30.6554 52.488 29.9655 53.0014C29.2756 53.5148 28.7346 54.1928 28.3425 55.0355L29.7631 66.7577L27.4123 67.0426ZM51.6723 64.1025L49.7435 48.187L52.0943 47.9021L54.0231 63.8176L51.6723 64.1025ZM50.5493 44.9948C50.1257 45.0462 49.7358 44.9322 49.3797 44.6531C49.0235 44.3739 48.8197 44.0225 48.7684 43.5989C48.7145 43.1542 48.8284 42.7643 49.1102 42.4293C49.3893 42.0732 49.7407 41.8694 50.1643 41.8181C50.609 41.7642 50.9989 41.8781 51.3339 42.1598C51.6875 42.4178 51.8912 42.7692 51.9451 43.214C51.9965 43.6375 51.8826 44.0274 51.6034 44.3836C51.3454 44.7372 50.994 44.9409 50.5493 44.9948ZM58.032 63.3318L56.1032 47.4162L58.454 47.1313L58.6811 49.0056C59.7535 47.3929 61.3381 46.4595 63.4348 46.2054C64.6419 46.0591 65.7329 46.1955 66.7078 46.6146C67.7012 47.0099 68.5085 47.6427 69.1297 48.513C69.7696 49.3595 70.1639 50.3969 70.3128 51.6252L71.5332 61.6956L69.2142 61.9766L68.0515 52.3828C67.8795 50.9638 67.3424 49.9007 66.4401 49.1935C65.5564 48.4625 64.4262 48.1804 63.0496 48.3473C62.0966 48.4628 61.2751 48.7772 60.5852 49.2906C59.8953 49.804 59.3543 50.482 58.9622 51.3246L60.3828 63.0469L58.032 63.3318ZM82.7725 60.5913C81.29 60.771 79.891 60.5752 78.5753 60.004C77.2783 59.4091 76.1954 58.5411 75.3265 57.4C74.4761 56.2352 73.9573 54.8797 73.7699 53.3337C73.5826 51.7877 73.7639 50.3582 74.3139 49.0451C74.8851 47.7295 75.7307 46.6385 76.8506 45.7722C77.9891 44.8821 79.3102 44.3459 80.8138 44.1637C81.7457 44.0507 82.665 44.1005 83.5718 44.3129C84.4761 44.5042 85.3242 44.8527 86.1161 45.3584L85.1613 37.4801L87.4467 36.6551L90.2071 59.4325L87.888 59.7135L87.684 58.0298C86.4428 59.4911 84.8056 60.3449 82.7725 60.5913ZM82.7446 58.4995C83.74 58.3789 84.6382 58.0766 85.4391 57.5927C86.2586 57.0851 86.9014 56.4485 87.3673 55.6829L86.4125 47.8045C85.7798 47.1935 85.0061 46.7501 84.0916 46.4741C83.1957 46.1744 82.2501 46.0848 81.2547 46.2054C80.1534 46.3389 79.1795 46.7256 78.333 47.3654C77.5077 48.0026 76.8868 48.8193 76.4702 49.8153C76.0723 50.7876 75.944 51.8561 76.0851 53.0209C76.2263 54.1857 76.6075 55.2032 77.2287 56.0735C77.8711 56.9412 78.6704 57.5964 79.6266 58.0393C80.604 58.4796 81.6433 58.633 82.7446 58.4995ZM94.2048 58.948L92.276 43.0324L94.6268 42.7475L96.5556 58.6631L94.2048 58.948ZM93.0818 39.8403C92.6582 39.8916 92.2684 39.7777 91.9122 39.4985C91.556 39.2193 91.3523 38.868 91.3009 38.4444C91.247 37.9997 91.361 37.6098 91.6427 37.2748C91.9219 36.9186 92.2733 36.7149 92.6968 36.6635C93.1416 36.6096 93.5314 36.7236 93.8664 37.0053C94.22 37.2633 94.4238 37.6147 94.4777 38.0594C94.529 38.483 94.4151 38.8729 94.1359 39.229C93.8779 39.5826 93.5266 39.7864 93.0818 39.8403ZM108.065 57.5584C106.54 57.7432 105.109 57.5513 103.772 56.9827C102.454 56.3903 101.349 55.5142 100.456 54.3545C99.5843 53.1923 99.0549 51.8381 98.8676 50.2921C98.6828 48.7673 98.8654 47.3483 99.4154 46.0353C99.9628 44.7011 100.786 43.6021 101.885 42.7383C102.981 41.8533 104.26 41.3223 105.721 41.1452C107.14 40.9732 108.455 41.1898 109.668 41.795C110.899 42.3765 111.918 43.2522 112.726 44.4222C113.553 45.5684 114.058 46.9039 114.243 48.4288L114.332 49.1594L101.275 50.7417C101.528 51.7641 101.969 52.6561 102.599 53.4179C103.249 54.1772 104.038 54.7477 104.966 55.1296C105.891 55.4903 106.872 55.6077 107.91 55.482C108.736 55.3819 109.525 55.1573 110.278 54.8082C111.031 54.4591 111.643 54.0195 112.116 53.4894L113.766 54.8689C112.956 55.6332 112.085 56.2438 111.152 56.7008C110.237 57.1339 109.208 57.4198 108.065 57.5584ZM101.112 48.8598L111.754 47.57C111.511 46.6324 111.091 45.8238 110.493 45.1441C109.913 44.4407 109.227 43.9222 108.435 43.5884C107.639 43.2335 106.797 43.11 105.908 43.2178C104.997 43.3281 104.186 43.6413 103.475 44.1573C102.764 44.6732 102.2 45.3432 101.784 46.1672C101.366 46.9701 101.142 47.8676 101.112 48.8598ZM133.896 61.0359C132.795 61.1693 131.686 61.1533 130.57 60.9877C129.457 60.8433 128.423 60.5602 127.469 60.1386L128.263 58.1728C129.277 58.5656 130.201 58.8297 131.034 58.9652C131.888 59.098 132.728 59.1144 133.554 59.0143C135.058 58.8321 136.158 58.3334 136.854 57.5184C137.551 56.7034 137.814 55.597 137.645 54.1992L137.375 51.9755C136.063 53.3809 134.454 54.1991 132.548 54.4301C131.086 54.6072 129.708 54.4089 128.414 53.8351C127.119 53.2614 126.038 52.4039 125.169 51.2629C124.319 50.098 123.801 48.7532 123.616 47.2284C123.431 45.7035 123.614 44.2846 124.164 42.9715C124.733 41.6347 125.577 40.5332 126.697 39.6668C127.817 38.8004 129.129 38.2761 130.632 38.0939C131.543 37.9835 132.441 38.0359 133.327 38.2509C134.233 38.4633 135.084 38.833 135.879 39.3599L135.686 37.7715L138.005 37.4905L139.992 53.8826C140.238 55.9157 139.834 57.5442 138.779 58.768C137.726 60.013 136.099 60.769 133.896 61.0359ZM132.488 52.3422C133.504 52.219 134.413 51.9154 135.214 51.4315C136.015 50.9477 136.638 50.3242 137.083 49.5612L136.136 41.7463C135.524 41.1328 134.761 40.688 133.846 40.412C132.953 40.1335 132.009 40.0545 131.013 40.1752C129.912 40.3086 128.949 40.694 128.123 41.3313C127.319 41.9659 126.72 42.78 126.324 43.7735C125.926 44.7457 125.797 45.8037 125.935 46.9473C126.074 48.0909 126.454 49.0979 127.075 49.9681C127.715 50.8146 128.502 51.4606 129.437 51.906C130.391 52.3277 131.408 52.473 132.488 52.3422ZM150.073 52.4997C148.865 52.646 147.765 52.5215 146.772 52.1261C145.776 51.7096 144.958 51.0781 144.318 50.2316C143.697 49.3613 143.312 48.312 143.163 47.0837L141.942 37.0133L144.261 36.7323L145.424 46.3261C145.596 47.7451 146.134 48.8187 147.039 49.5472C147.942 50.2544 149.071 50.5259 150.426 50.3616C151.379 50.2461 152.2 49.9317 152.89 49.4183C153.599 48.8812 154.139 48.1925 154.51 47.3525L153.093 35.662L155.444 35.3771L157.372 51.2927L155.022 51.5776L154.798 49.735C153.723 51.3266 152.148 52.2482 150.073 52.4997ZM161.37 50.8082L159.441 34.8927L161.792 34.6078L163.72 50.5233L161.37 50.8082ZM160.247 31.7006C159.823 31.7519 159.433 31.638 159.077 31.3588C158.721 31.0796 158.517 30.7282 158.466 30.3047C158.412 29.8599 158.526 29.4701 158.808 29.1351C159.087 28.7789 159.438 28.5751 159.862 28.5238C160.306 28.4699 160.696 28.5838 161.031 28.8656C161.385 29.1236 161.589 29.4749 161.643 29.9197C161.694 30.3433 161.58 30.7331 161.301 31.0893C161.043 31.4429 160.691 31.6467 160.247 31.7006ZM175.035 49.41C173.552 49.5897 172.153 49.3939 170.838 48.8227C169.541 48.2278 168.458 47.3597 167.589 46.2187C166.739 45.0538 166.22 43.6984 166.032 42.1524C165.845 40.6064 166.026 39.1768 166.576 37.8638C167.148 36.5482 167.993 35.4572 169.113 34.5908C170.252 33.7007 171.573 33.1646 173.076 32.9823C174.008 32.8694 174.927 32.9192 175.834 33.1316C176.739 33.3229 177.587 33.6714 178.379 34.1771L177.424 26.2987L179.709 25.4738L182.47 48.2511L180.15 48.5322L179.946 46.8485C178.705 48.3098 177.068 49.1636 175.035 49.41ZM175.007 47.3182C176.002 47.1975 176.901 46.8953 177.702 46.4114C178.521 45.9038 179.164 45.2672 179.63 44.5016L178.675 36.6232C178.042 36.0122 177.269 35.5687 176.354 35.2928C175.458 34.993 174.513 34.9035 173.517 35.0241C172.416 35.1576 171.442 35.5442 170.595 36.1841C169.77 36.8213 169.149 37.638 168.733 38.634C168.335 39.6062 168.206 40.6748 168.348 41.8396C168.489 43.0044 168.87 44.0219 169.491 44.8922C170.134 45.7599 170.933 46.4151 171.889 46.858C172.866 47.2982 173.906 47.4516 175.007 47.3182ZM193.967 47.1478C192.442 47.3326 191.012 47.1407 189.675 46.5721C188.357 45.9797 187.251 45.1037 186.359 43.944C185.487 42.7817 184.958 41.4276 184.77 39.8815C184.585 38.3567 184.768 36.9378 185.318 35.6247C185.866 34.2905 186.689 33.1915 187.787 32.3277C188.884 31.4427 190.162 30.9117 191.624 30.7346C193.043 30.5626 194.358 30.7792 195.57 31.3845C196.801 31.9659 197.821 32.8416 198.629 34.0116C199.455 35.1578 199.961 36.4933 200.146 38.0182L200.234 38.7488L187.178 40.3312C187.431 41.3535 187.872 42.2456 188.501 43.0074C189.152 43.7666 189.941 44.3371 190.869 44.719C191.793 45.0797 192.775 45.1972 193.812 45.0714C194.638 44.9713 195.428 44.7467 196.18 44.3976C196.933 44.0485 197.546 43.6089 198.019 43.0788L199.669 44.4583C198.859 45.2226 197.988 45.8333 197.055 46.2902C196.14 46.7233 195.111 47.0092 193.967 47.1478ZM187.014 38.4492L197.656 37.1594C197.414 36.2218 196.993 35.4132 196.395 34.7335C195.816 34.0301 195.13 33.5116 194.337 33.1778C193.542 32.8229 192.7 32.6994 191.81 32.8072C190.9 32.9175 190.089 33.2307 189.378 33.7467C188.667 34.2626 188.103 34.9326 187.687 35.7566C187.269 36.5595 187.044 37.457 187.014 38.4492ZM217.52 44.3257C216.144 44.4925 215.045 44.2926 214.224 43.7259C213.403 43.1592 212.917 42.251 212.766 41.0015L211.507 30.6135L208.076 31.0293L207.834 29.028L211.264 28.6122L210.775 24.5777L213.021 23.6931L213.583 28.3311L218.38 27.7498L218.623 29.7511L213.826 30.3325L215.012 40.1169C215.114 40.964 215.379 41.5551 215.807 41.8901C216.232 42.204 216.878 42.3083 217.747 42.203C218.191 42.1491 218.579 42.0699 218.91 41.9653C219.263 41.8581 219.631 41.706 220.016 41.509L220.266 43.5739C219.881 43.7709 219.439 43.932 218.938 44.0571C218.459 44.1797 217.986 44.2692 217.52 44.3257ZM229.956 42.8185C228.453 43.0008 227.032 42.8076 225.696 42.2389C224.377 41.6466 223.283 40.7692 222.411 39.607C221.54 38.4447 221.01 37.0906 220.823 35.5446C220.636 33.9985 220.826 32.5571 221.395 31.2203C221.963 29.8835 222.818 28.7807 223.959 27.9118C225.119 27.0191 226.451 26.4816 227.954 26.2994C229.479 26.1146 230.901 26.3184 232.219 26.9108C233.535 27.482 234.628 28.3487 235.5 29.511C236.371 30.6732 236.9 32.0274 237.088 33.5734C237.275 35.1194 237.085 36.5608 236.516 37.8976C235.947 39.2344 235.094 40.3478 233.955 41.2379C232.814 42.1069 231.481 42.6337 229.956 42.8185ZM229.702 40.7219C230.782 40.591 231.723 40.1976 232.525 39.5417C233.348 38.8833 233.957 38.0574 234.352 37.0639C234.768 36.0679 234.907 34.9981 234.769 33.8544C234.628 32.6896 234.237 31.684 233.597 30.8375C232.976 29.9672 232.187 29.3107 231.231 28.8678C230.296 28.4224 229.289 28.2652 228.208 28.3961C227.128 28.527 226.177 28.9216 225.354 29.5801C224.553 30.2359 223.944 31.0619 223.527 32.0579C223.129 33.0302 223.001 34.0987 223.142 35.2635C223.28 36.4071 223.66 37.4141 224.282 38.2843C224.924 39.152 225.713 39.8086 226.648 40.254C227.604 40.6968 228.622 40.8528 229.702 40.7219ZM254.438 39.8516C253.061 40.0185 251.962 39.8185 251.142 39.2518C250.321 38.6851 249.835 37.777 249.683 36.5275L248.424 26.1395L244.993 26.5553L244.751 24.5539L248.182 24.1381L247.693 20.1037L249.939 19.219L250.501 23.8571L255.298 23.2758L255.54 25.2771L250.743 25.8585L251.929 35.6429C252.032 36.49 252.297 37.0811 252.724 37.4161C253.149 37.7299 253.796 37.8342 254.664 37.729C255.109 37.6751 255.497 37.5958 255.828 37.4912C256.18 37.3841 256.549 37.232 256.933 37.035L257.183 39.0999C256.799 39.2969 256.356 39.4579 255.856 39.5831C255.376 39.7056 254.904 39.7952 254.438 39.8516ZM259.744 38.8863L257.049 16.649L259.334 15.824L260.393 24.5601C261.465 22.9474 263.05 22.014 265.146 21.7599C266.354 21.6136 267.445 21.75 268.419 22.1691C269.413 22.5644 270.22 23.1972 270.841 24.0675C271.481 24.914 271.876 25.9514 272.024 27.1797L273.245 37.25L270.926 37.5311L269.763 27.9373C269.591 26.5183 269.054 25.4552 268.152 24.748C267.268 24.017 266.138 23.7349 264.761 23.9017C263.808 24.0172 262.987 24.3317 262.297 24.8451C261.607 25.3585 261.066 26.0365 260.674 26.8791L262.094 38.6014L259.744 38.8863ZM284.679 36.1545C283.154 36.3393 281.723 36.1474 280.386 35.5787C279.068 34.9864 277.963 34.1103 277.07 32.9506C276.198 31.7884 275.669 30.4342 275.482 28.8882C275.297 27.3634 275.479 25.9444 276.029 24.6314C276.577 23.2972 277.4 22.1981 278.499 21.3343C279.595 20.4494 280.874 19.9183 282.335 19.7412C283.754 19.5693 285.069 19.7859 286.282 20.3911C287.513 20.9726 288.532 21.8483 289.34 23.0183C290.167 24.1645 290.672 25.5 290.857 27.0248L290.946 27.7555L277.889 29.3378C278.142 30.3602 278.583 31.2522 279.213 32.014C279.863 32.7732 280.653 33.3438 281.58 33.7257C282.505 34.0864 283.486 34.2038 284.524 34.0781C285.35 33.978 286.139 33.7534 286.892 33.4042C287.645 33.0551 288.257 32.6155 288.73 32.0855L290.38 33.465C289.57 34.2293 288.699 34.8399 287.766 35.2968C286.851 35.73 285.822 36.0159 284.679 36.1545ZM277.726 27.4558L288.368 26.1661C288.125 25.2285 287.705 24.4198 287.107 23.7402C286.527 23.0368 285.841 22.5182 285.049 22.1845C284.253 21.8296 283.411 21.706 282.522 21.8138C281.611 21.9242 280.8 22.2374 280.089 22.7533C279.378 23.2693 278.814 23.9393 278.398 24.7633C277.98 25.5662 277.756 26.4637 277.726 27.4558Z" fill="#0F0F0F"/>
<path d="M345.995 324V301.6H355.083C356.534 301.6 357.782 301.835 358.827 302.304C359.894 302.773 360.715 303.445 361.291 304.32C361.867 305.173 362.155 306.187 362.155 307.36C362.155 308.512 361.846 309.515 361.227 310.368C360.63 311.221 359.798 311.872 358.731 312.32C360.075 312.725 361.131 313.397 361.899 314.336C362.689 315.275 363.083 316.395 363.083 317.696C363.083 318.976 362.763 320.096 362.123 321.056C361.505 321.995 360.619 322.72 359.467 323.232C358.337 323.744 357.003 324 355.467 324H345.995ZM348.459 311.36H354.955C356.406 311.36 357.558 311.019 358.411 310.336C359.286 309.653 359.723 308.725 359.723 307.552C359.723 306.379 359.286 305.451 358.411 304.768C357.558 304.085 356.406 303.744 354.955 303.744H348.459V311.36ZM348.459 321.856H355.275C356.897 321.856 358.187 321.472 359.147 320.704C360.107 319.936 360.587 318.912 360.587 317.632C360.587 316.352 360.107 315.328 359.147 314.56C358.187 313.792 356.897 313.408 355.275 313.408H348.459V321.856ZM372.41 324.32C371.194 324.32 370.117 324.064 369.178 323.552C368.239 323.019 367.503 322.293 366.97 321.376C366.458 320.437 366.202 319.349 366.202 318.112V307.968H368.538V317.632C368.538 319.061 368.943 320.192 369.754 321.024C370.565 321.835 371.653 322.24 373.018 322.24C373.978 322.24 374.831 322.027 375.578 321.6C376.346 321.152 376.965 320.533 377.434 319.744V307.968H379.802V324H377.434V322.144C376.175 323.595 374.501 324.32 372.41 324.32ZM383.829 324V307.968H386.197V324H383.829ZM385.013 304.896C384.586 304.896 384.213 304.736 383.893 304.416C383.573 304.096 383.413 303.723 383.413 303.296C383.413 302.848 383.573 302.475 383.893 302.176C384.213 301.856 384.586 301.696 385.013 301.696C385.461 301.696 385.834 301.856 386.133 302.176C386.453 302.475 386.613 302.848 386.613 303.296C386.613 303.723 386.453 304.096 386.133 304.416C385.834 304.736 385.461 304.896 385.013 304.896ZM390.235 324V301.6L392.603 301.056V324H390.235ZM403.969 324.256C402.476 324.256 401.11 323.893 399.873 323.168C398.657 322.421 397.686 321.429 396.961 320.192C396.257 318.933 395.905 317.525 395.905 315.968C395.905 314.411 396.257 313.013 396.961 311.776C397.686 310.539 398.657 309.557 399.873 308.832C401.11 308.085 402.486 307.712 404.001 307.712C404.94 307.712 405.846 307.872 406.721 308.192C407.596 308.491 408.396 308.939 409.121 309.536V301.6L411.489 301.056V324H409.153V322.304C407.745 323.605 406.017 324.256 403.969 324.256ZM404.193 322.176C405.196 322.176 406.124 321.984 406.977 321.6C407.852 321.195 408.566 320.64 409.121 319.936V312C408.566 311.317 407.852 310.784 406.977 310.4C406.124 309.995 405.196 309.792 404.193 309.792C403.084 309.792 402.07 310.059 401.153 310.592C400.257 311.125 399.542 311.861 399.009 312.8C398.497 313.717 398.241 314.763 398.241 315.936C398.241 317.109 398.497 318.165 399.009 319.104C399.542 320.043 400.257 320.789 401.153 321.344C402.07 321.899 403.084 322.176 404.193 322.176ZM423.063 330.848C422.764 330.848 422.476 330.827 422.199 330.784C421.943 330.763 421.73 330.731 421.559 330.688V328.544C421.922 328.629 422.37 328.672 422.903 328.672C424.311 328.672 425.378 327.84 426.103 326.176L427.063 323.968L420.535 307.968H423.159L428.343 321.12L433.943 307.968H436.503L428.503 326.496C428.055 327.52 427.575 328.352 427.063 328.992C426.551 329.632 425.964 330.101 425.303 330.4C424.663 330.699 423.916 330.848 423.063 330.848ZM445.691 324.32C444.176 324.32 442.789 323.957 441.531 323.232C440.293 322.485 439.312 321.483 438.587 320.224C437.861 318.965 437.499 317.557 437.499 316C437.499 314.443 437.861 313.035 438.587 311.776C439.312 310.517 440.293 309.525 441.531 308.8C442.789 308.053 444.176 307.68 445.691 307.68C447.227 307.68 448.613 308.053 449.851 308.8C451.088 309.525 452.069 310.517 452.795 311.776C453.52 313.035 453.883 314.443 453.883 316C453.883 317.557 453.52 318.965 452.795 320.224C452.069 321.483 451.088 322.485 449.851 323.232C448.613 323.957 447.227 324.32 445.691 324.32ZM445.691 322.208C446.779 322.208 447.76 321.931 448.635 321.376C449.531 320.821 450.235 320.075 450.747 319.136C451.28 318.197 451.547 317.152 451.547 316C451.547 314.827 451.28 313.781 450.747 312.864C450.235 311.925 449.531 311.179 448.635 310.624C447.76 310.069 446.779 309.792 445.691 309.792C444.603 309.792 443.611 310.069 442.715 310.624C441.84 311.179 441.136 311.925 440.603 312.864C440.091 313.781 439.835 314.827 439.835 316C439.835 317.152 440.091 318.197 440.603 319.136C441.136 320.075 441.84 320.821 442.715 321.376C443.611 321.931 444.603 322.208 445.691 322.208ZM463.316 324.32C462.1 324.32 461.023 324.064 460.084 323.552C459.146 323.019 458.41 322.293 457.876 321.376C457.364 320.437 457.108 319.349 457.108 318.112V307.968H459.444V317.632C459.444 319.061 459.85 320.192 460.66 321.024C461.471 321.835 462.559 322.24 463.924 322.24C464.884 322.24 465.738 322.027 466.484 321.6C467.252 321.152 467.871 320.533 468.34 319.744V307.968H470.708V324H468.34V322.144C467.082 323.595 465.407 324.32 463.316 324.32ZM474.735 324V307.968H477.103V310.24C477.593 309.408 478.212 308.768 478.959 308.32C479.727 307.851 480.601 307.616 481.583 307.616C482.137 307.616 482.639 307.691 483.087 307.84V310.016C482.809 309.909 482.532 309.835 482.255 309.792C481.977 309.749 481.7 309.728 481.423 309.728C480.441 309.728 479.577 310.016 478.831 310.592C478.105 311.147 477.529 311.957 477.103 313.024V324H474.735ZM492.672 324V301.6L495.04 301.056V309.856C496.299 308.384 497.984 307.648 500.096 307.648C501.312 307.648 502.379 307.915 503.296 308.448C504.235 308.96 504.96 309.685 505.472 310.624C506.006 311.541 506.272 312.619 506.272 313.856V324H503.936V314.336C503.936 312.907 503.531 311.787 502.72 310.976C501.931 310.144 500.843 309.728 499.456 309.728C498.496 309.728 497.643 309.941 496.896 310.368C496.15 310.795 495.531 311.403 495.04 312.192V324H492.672ZM517.691 324.32C516.176 324.32 514.789 323.957 513.531 323.232C512.293 322.485 511.312 321.483 510.587 320.224C509.861 318.965 509.499 317.557 509.499 316C509.499 314.443 509.861 313.035 510.587 311.776C511.312 310.517 512.293 309.525 513.531 308.8C514.789 308.053 516.176 307.68 517.691 307.68C519.227 307.68 520.613 308.053 521.851 308.8C523.088 309.525 524.069 310.517 524.795 311.776C525.52 313.035 525.883 314.443 525.883 316C525.883 317.557 525.52 318.965 524.795 320.224C524.069 321.483 523.088 322.485 521.851 323.232C520.613 323.957 519.227 324.32 517.691 324.32ZM517.691 322.208C518.779 322.208 519.76 321.931 520.635 321.376C521.531 320.821 522.235 320.075 522.747 319.136C523.28 318.197 523.547 317.152 523.547 316C523.547 314.827 523.28 313.781 522.747 312.864C522.235 311.925 521.531 311.179 520.635 310.624C519.76 310.069 518.779 309.792 517.691 309.792C516.603 309.792 515.611 310.069 514.715 310.624C513.84 311.179 513.136 311.925 512.603 312.864C512.091 313.781 511.835 314.827 511.835 316C511.835 317.152 512.091 318.197 512.603 319.136C513.136 320.075 513.84 320.821 514.715 321.376C515.611 321.931 516.603 322.208 517.691 322.208ZM529.172 324V307.968H531.54V309.728C532.756 308.341 534.324 307.648 536.244 307.648C537.375 307.648 538.378 307.915 539.252 308.448C540.127 308.96 540.81 309.664 541.3 310.56C541.962 309.579 542.751 308.853 543.668 308.384C544.586 307.893 545.631 307.648 546.804 307.648C547.978 307.648 549.002 307.915 549.876 308.448C550.751 308.96 551.434 309.685 551.924 310.624C552.436 311.541 552.692 312.619 552.692 313.856V324H550.356V314.336C550.356 312.907 549.983 311.787 549.236 310.976C548.49 310.144 547.476 309.728 546.196 309.728C545.322 309.728 544.522 309.952 543.796 310.4C543.071 310.827 542.452 311.477 541.94 312.352C541.983 312.587 542.015 312.832 542.036 313.088C542.079 313.323 542.1 313.579 542.1 313.856V324H539.764V314.336C539.764 312.907 539.391 311.787 538.644 310.976C537.898 310.144 536.895 309.728 535.636 309.728C534.783 309.728 534.004 309.931 533.3 310.336C532.618 310.72 532.031 311.296 531.54 312.064V324H529.172ZM564.192 324.288C562.656 324.288 561.259 323.925 560 323.2C558.763 322.453 557.771 321.451 557.024 320.192C556.299 318.933 555.936 317.525 555.936 315.968C555.936 314.432 556.288 313.045 556.992 311.808C557.696 310.549 558.646 309.557 559.84 308.832C561.035 308.085 562.368 307.712 563.84 307.712C565.27 307.712 566.55 308.085 567.68 308.832C568.832 309.557 569.739 310.549 570.4 311.808C571.083 313.045 571.424 314.432 571.424 315.968V316.704H558.272C558.4 317.749 558.731 318.688 559.264 319.52C559.819 320.352 560.534 321.013 561.408 321.504C562.283 321.973 563.243 322.208 564.288 322.208C565.12 322.208 565.931 322.08 566.72 321.824C567.51 321.568 568.171 321.205 568.704 320.736L570.176 322.304C569.28 322.965 568.342 323.467 567.36 323.808C566.4 324.128 565.344 324.288 564.192 324.288ZM558.336 314.816H569.056C568.928 313.856 568.608 313.003 568.096 312.256C567.606 311.488 566.987 310.891 566.24 310.464C565.494 310.016 564.672 309.792 563.776 309.792C562.859 309.792 562.016 310.005 561.248 310.432C560.48 310.859 559.84 311.456 559.328 312.224C558.816 312.971 558.486 313.835 558.336 314.816ZM589.066 324.32C587.551 324.32 586.164 323.957 584.906 323.232C583.668 322.485 582.687 321.483 581.962 320.224C581.236 318.965 580.874 317.557 580.874 316C580.874 314.443 581.236 313.035 581.962 311.776C582.687 310.517 583.668 309.525 584.906 308.8C586.164 308.053 587.551 307.68 589.066 307.68C590.602 307.68 591.988 308.053 593.226 308.8C594.463 309.525 595.444 310.517 596.17 311.776C596.895 313.035 597.258 314.443 597.258 316C597.258 317.557 596.895 318.965 596.17 320.224C595.444 321.483 594.463 322.485 593.226 323.232C591.988 323.957 590.602 324.32 589.066 324.32ZM589.066 322.208C590.154 322.208 591.135 321.931 592.01 321.376C592.906 320.821 593.61 320.075 594.122 319.136C594.655 318.197 594.922 317.152 594.922 316C594.922 314.827 594.655 313.781 594.122 312.864C593.61 311.925 592.906 311.179 592.01 310.624C591.135 310.069 590.154 309.792 589.066 309.792C587.978 309.792 586.986 310.069 586.09 310.624C585.215 311.179 584.511 311.925 583.978 312.864C583.466 313.781 583.21 314.827 583.21 316C583.21 317.152 583.466 318.197 583.978 319.136C584.511 320.075 585.215 320.821 586.09 321.376C586.986 321.931 587.978 322.208 589.066 322.208ZM600.547 324V307.968H602.915V309.856C604.174 308.384 605.859 307.648 607.971 307.648C609.187 307.648 610.254 307.915 611.171 308.448C612.11 308.96 612.835 309.685 613.347 310.624C613.881 311.541 614.147 312.619 614.147 313.856V324H611.811V314.336C611.811 312.907 611.406 311.787 610.595 310.976C609.806 310.144 608.718 309.728 607.331 309.728C606.371 309.728 605.518 309.941 604.771 310.368C604.025 310.795 603.406 311.403 602.915 312.192V324H600.547ZM631.289 324.32C629.902 324.32 628.835 323.989 628.089 323.328C627.342 322.667 626.969 321.707 626.969 320.448V309.984H623.513V307.968H626.969V303.904L629.305 303.296V307.968H634.137V309.984H629.305V319.84C629.305 320.693 629.497 321.312 629.881 321.696C630.265 322.059 630.894 322.24 631.769 322.24C632.217 322.24 632.611 322.208 632.953 322.144C633.315 322.08 633.699 321.973 634.105 321.824V323.904C633.699 324.053 633.241 324.16 632.729 324.224C632.238 324.288 631.758 324.32 631.289 324.32ZM636.672 324V301.6L639.04 301.056V309.856C640.299 308.384 641.984 307.648 644.096 307.648C645.312 307.648 646.379 307.915 647.296 308.448C648.235 308.96 648.96 309.685 649.472 310.624C650.006 311.541 650.272 312.619 650.272 313.856V324H647.936V314.336C647.936 312.907 647.531 311.787 646.72 310.976C645.931 310.144 644.843 309.728 643.456 309.728C642.496 309.728 641.643 309.941 640.896 310.368C640.15 310.795 639.531 311.403 639.04 312.192V324H636.672ZM661.755 324.288C660.219 324.288 658.821 323.925 657.563 323.2C656.325 322.453 655.333 321.451 654.587 320.192C653.861 318.933 653.499 317.525 653.499 315.968C653.499 314.432 653.851 313.045 654.555 311.808C655.259 310.549 656.208 309.557 657.403 308.832C658.597 308.085 659.931 307.712 661.403 307.712C662.832 307.712 664.112 308.085 665.243 308.832C666.395 309.557 667.301 310.549 667.963 311.808C668.645 313.045 668.987 314.432 668.987 315.968V316.704H655.835C655.963 317.749 656.293 318.688 656.827 319.52C657.381 320.352 658.096 321.013 658.971 321.504C659.845 321.973 660.805 322.208 661.851 322.208C662.683 322.208 663.493 322.08 664.283 321.824C665.072 321.568 665.733 321.205 666.267 320.736L667.739 322.304C666.843 322.965 665.904 323.467 664.923 323.808C663.963 324.128 662.907 324.288 661.755 324.288ZM655.899 314.816H666.619C666.491 313.856 666.171 313.003 665.659 312.256C665.168 311.488 664.549 310.891 663.803 310.464C663.056 310.016 662.235 309.792 661.339 309.792C660.421 309.792 659.579 310.005 658.811 310.432C658.043 310.859 657.403 311.456 656.891 312.224C656.379 312.971 656.048 313.835 655.899 314.816ZM679.172 324V307.968H681.54V324H679.172ZM680.356 304.896C679.93 304.896 679.556 304.736 679.236 304.416C678.916 304.096 678.756 303.723 678.756 303.296C678.756 302.848 678.916 302.475 679.236 302.176C679.556 301.856 679.93 301.696 680.356 301.696C680.804 301.696 681.178 301.856 681.476 302.176C681.796 302.475 681.956 302.848 681.956 303.296C681.956 303.723 681.796 304.096 681.476 304.416C681.178 304.736 680.804 304.896 680.356 304.896ZM685.579 324V307.968H687.947V309.856C689.205 308.384 690.891 307.648 693.003 307.648C694.219 307.648 695.285 307.915 696.203 308.448C697.141 308.96 697.867 309.685 698.379 310.624C698.912 311.541 699.179 312.619 699.179 313.856V324H696.843V314.336C696.843 312.907 696.437 311.787 695.627 310.976C694.837 310.144 693.749 309.728 692.363 309.728C691.403 309.728 690.549 309.941 689.803 310.368C689.056 310.795 688.437 311.403 687.947 312.192V324H685.579ZM708.976 324.32C707.59 324.32 706.523 323.989 705.776 323.328C705.03 322.667 704.656 321.707 704.656 320.448V309.984H701.2V307.968H704.656V303.904L706.992 303.296V307.968H711.824V309.984H706.992V319.84C706.992 320.693 707.184 321.312 707.568 321.696C707.952 322.059 708.582 322.24 709.456 322.24C709.904 322.24 710.299 322.208 710.64 322.144C711.003 322.08 711.387 321.973 711.792 321.824V323.904C711.387 324.053 710.928 324.16 710.416 324.224C709.926 324.288 709.446 324.32 708.976 324.32ZM721.567 324.288C720.031 324.288 718.634 323.925 717.375 323.2C716.138 322.453 715.146 321.451 714.399 320.192C713.674 318.933 713.311 317.525 713.311 315.968C713.311 314.432 713.663 313.045 714.367 311.808C715.071 310.549 716.021 309.557 717.215 308.832C718.41 308.085 719.743 307.712 721.215 307.712C722.645 307.712 723.925 308.085 725.055 308.832C726.207 309.557 727.114 310.549 727.775 311.808C728.458 313.045 728.799 314.432 728.799 315.968V316.704H715.647C715.775 317.749 716.106 318.688 716.639 319.52C717.194 320.352 717.909 321.013 718.783 321.504C719.658 321.973 720.618 322.208 721.663 322.208C722.495 322.208 723.306 322.08 724.095 321.824C724.885 321.568 725.546 321.205 726.079 320.736L727.551 322.304C726.655 322.965 725.717 323.467 724.735 323.808C723.775 324.128 722.719 324.288 721.567 324.288ZM715.711 314.816H726.431C726.303 313.856 725.983 313.003 725.471 312.256C724.981 311.488 724.362 310.891 723.615 310.464C722.869 310.016 722.047 309.792 721.151 309.792C720.234 309.792 719.391 310.005 718.623 310.432C717.855 310.859 717.215 311.456 716.703 312.224C716.191 312.971 715.861 313.835 715.711 314.816ZM732.11 324V307.968H734.478V310.24C734.968 309.408 735.587 308.768 736.334 308.32C737.102 307.851 737.976 307.616 738.958 307.616C739.512 307.616 740.014 307.691 740.462 307.84V310.016C740.184 309.909 739.907 309.835 739.63 309.792C739.352 309.749 739.075 309.728 738.798 309.728C737.816 309.728 736.952 310.016 736.206 310.592C735.48 311.147 734.904 311.957 734.478 313.024V324H732.11ZM743.172 324V307.968H745.54V309.856C746.799 308.384 748.484 307.648 750.596 307.648C751.812 307.648 752.879 307.915 753.796 308.448C754.735 308.96 755.46 309.685 755.972 310.624C756.506 311.541 756.772 312.619 756.772 313.856V324H754.436V314.336C754.436 312.907 754.031 311.787 753.22 310.976C752.431 310.144 751.343 309.728 749.956 309.728C748.996 309.728 748.143 309.941 747.396 310.368C746.65 310.795 746.031 311.403 745.54 312.192V324H743.172ZM768.255 324.288C766.719 324.288 765.321 323.925 764.063 323.2C762.825 322.453 761.833 321.451 761.087 320.192C760.361 318.933 759.999 317.525 759.999 315.968C759.999 314.432 760.351 313.045 761.055 311.808C761.759 310.549 762.708 309.557 763.903 308.832C765.097 308.085 766.431 307.712 767.903 307.712C769.332 307.712 770.612 308.085 771.743 308.832C772.895 309.557 773.801 310.549 774.463 311.808C775.145 313.045 775.487 314.432 775.487 315.968V316.704H762.335C762.463 317.749 762.793 318.688 763.327 319.52C763.881 320.352 764.596 321.013 765.471 321.504C766.345 321.973 767.305 322.208 768.351 322.208C769.183 322.208 769.993 322.08 770.783 321.824C771.572 321.568 772.233 321.205 772.767 320.736L774.239 322.304C773.343 322.965 772.404 323.467 771.423 323.808C770.463 324.128 769.407 324.288 768.255 324.288ZM762.399 314.816H773.119C772.991 313.856 772.671 313.003 772.159 312.256C771.668 311.488 771.049 310.891 770.303 310.464C769.556 310.016 768.735 309.792 767.839 309.792C766.921 309.792 766.079 310.005 765.311 310.432C764.543 310.859 763.903 311.456 763.391 312.224C762.879 312.971 762.548 313.835 762.399 314.816ZM784.633 324.32C783.246 324.32 782.179 323.989 781.433 323.328C780.686 322.667 780.312 321.707 780.312 320.448V309.984H776.857V307.968H780.312V303.904L782.649 303.296V307.968H787.481V309.984H782.649V319.84C782.649 320.693 782.841 321.312 783.225 321.696C783.609 322.059 784.238 322.24 785.113 322.24C785.561 322.24 785.955 322.208 786.297 322.144C786.659 322.08 787.043 321.973 787.449 321.824V323.904C787.043 324.053 786.585 324.16 786.073 324.224C785.582 324.288 785.102 324.32 784.633 324.32Z" fill="#0F0F0F"/>
<rect width="769.862" height="211.028" transform="translate(5 92.5817) rotate(-6.90697)" fill="#FF5C00"/>
<path d="M128.716 138.31L131.163 158.514L110.705 160.992L116.646 210.042L137.105 207.564L139.568 227.895L75.651 235.638L73.1881 215.306L93.6466 212.828L87.7049 163.779L67.2464 166.257L64.799 146.053L128.716 138.31ZM141.346 162.438L163.075 159.806L164.907 174.927C166.08 169.714 168.648 165.363 172.609 161.874C176.57 158.386 181.855 156.242 188.462 155.441C196.934 154.415 203.833 156.373 209.159 161.315C214.56 166.162 217.871 173.626 219.092 183.707L223.217 217.762L201.234 220.425L197.524 189.801C196.816 183.956 195.392 180.002 193.251 177.941C191.1 175.794 187.652 175.009 182.908 175.583C177.148 176.281 172.953 178.551 170.324 182.394C167.78 186.226 167.026 192.421 168.062 200.977L170.864 224.104L149.135 226.736L141.346 162.438ZM261.731 214.386C251.819 215.587 244.027 213.35 238.354 207.676C232.681 202.003 229.25 194.253 228.059 184.426C226.879 174.684 228.371 166.423 232.536 159.644C236.69 152.779 243.723 148.747 253.634 147.546C265.07 146.161 273.742 149.623 279.648 157.934L274.661 116.762L296.39 114.13L307.704 207.528L285.974 210.16L284.497 197.961C280.671 207.536 273.082 213.011 261.731 214.386ZM249.789 181.793C250.363 186.537 252.197 189.968 255.29 192.087C258.373 194.12 262.541 194.818 267.793 194.182C272.791 193.577 276.539 191.876 279.037 189.081C281.535 186.286 282.502 182.558 281.938 177.899C281.383 173.324 279.565 170.021 276.482 167.987C273.389 165.869 269.343 165.113 264.345 165.718C259.093 166.355 255.213 168.028 252.704 170.739C250.196 173.449 249.224 177.134 249.789 181.793ZM314.921 187.184L332.965 184.998L329.824 159.076L314.068 160.984L311.743 141.797L336.522 138.795C340.08 138.364 342.904 138.968 344.993 140.605C347.157 142.148 348.45 144.657 348.87 148.13L353.042 182.566L371.213 180.365L373.537 199.553L317.245 206.372L314.921 187.184ZM335.337 133.265C331.355 133.748 328.113 133.238 325.61 131.736C323.182 130.139 321.747 127.519 321.306 123.877C320.864 120.234 321.637 117.39 323.624 115.344C325.686 113.203 328.707 111.892 332.689 111.409C336.671 110.927 339.96 111.474 342.558 113.05C345.156 114.627 346.67 117.194 347.101 120.752C347.542 124.395 346.69 127.291 344.544 129.443C342.472 131.499 339.403 132.773 335.337 133.265ZM373.469 166.682C372.648 159.905 373.375 153.843 375.65 148.496C377.925 143.149 381.487 138.849 386.336 135.597C391.175 132.261 396.941 130.187 403.634 129.376C414.731 128.032 423.673 129.828 430.46 134.765C437.332 139.692 441.384 147.238 442.615 157.404L443.308 163.122L395.91 168.863C396.816 172.794 398.546 175.722 401.1 177.647C403.644 179.488 406.864 180.172 410.761 179.7C414.15 179.29 416.868 178.316 418.917 176.778C420.955 175.156 422.122 173.08 422.418 170.552L444.02 167.935C443.96 175.249 441.147 181.478 435.582 186.621C430.1 191.755 422.489 194.912 412.747 196.092C405.631 196.954 399.235 196.311 393.559 194.162C387.884 192.013 383.298 188.571 379.802 183.837C376.391 179.093 374.28 173.375 373.469 166.682ZM420.732 154.51C419.962 150.993 418.279 148.447 415.681 146.87C413.157 145.199 409.99 144.594 406.178 145.056C402.365 145.518 399.434 146.861 397.383 149.087C395.321 151.228 394.379 154.092 394.556 157.681L420.732 154.51ZM566.912 176.128L524.47 181.269L504.518 100.651L504.266 183.717L461.57 188.889L437.629 100.889L460.756 98.0875L479.223 164.315L482.868 178.444L483.121 95.3783L523.911 90.4372L544.005 171.167L544.299 156.561L546.148 87.7434L569.275 84.9419L566.912 176.128ZM577.974 141.909C577.153 135.132 577.88 129.07 580.155 123.723C582.43 118.376 585.992 114.076 590.841 110.824C595.68 107.487 601.446 105.414 608.139 104.603C619.236 103.259 628.178 105.055 634.965 109.992C641.837 114.919 645.889 122.465 647.12 132.631L647.813 138.349L600.415 144.09C601.321 148.021 603.051 150.948 605.605 152.874C608.149 154.715 611.369 155.399 615.266 154.927C618.655 154.517 621.373 153.543 623.422 152.005C625.46 150.383 626.627 148.307 626.923 145.779L648.525 143.162C648.465 150.476 645.652 156.704 640.087 161.848C634.605 166.982 626.994 170.139 617.252 171.319C610.136 172.181 603.74 171.538 598.064 169.389C592.389 167.24 587.803 163.798 584.307 159.064C580.896 154.32 578.785 148.602 577.974 141.909ZM625.237 129.737C624.467 126.22 622.784 123.674 620.186 122.097C617.662 120.426 614.495 119.821 610.683 120.283C606.87 120.745 603.939 122.088 601.888 124.314C599.826 126.455 598.884 129.319 599.061 132.908L625.237 129.737ZM649.456 71.361L671.185 68.7288L676.203 110.154C679.934 100.505 687.517 94.9873 698.954 93.6019C708.865 92.4013 716.657 94.6378 722.33 100.311C727.993 105.9 731.414 113.566 732.594 123.308C733.785 133.135 732.303 141.48 728.149 148.344C723.995 155.208 716.962 159.241 707.05 160.441C695.614 161.827 686.932 158.28 681.006 149.8L682.499 162.126L660.77 164.758L649.456 71.361ZM678.716 129.835C679.321 134.833 681.076 138.316 683.979 140.286C686.882 142.255 691.002 142.916 696.339 142.27C701.761 141.613 705.689 139.977 708.123 137.361C710.546 134.66 711.46 130.854 710.865 125.94C710.27 121.027 708.483 117.633 705.506 115.759C702.518 113.8 698.313 113.149 692.891 113.806C687.554 114.452 683.711 116.078 681.362 118.683C679.013 121.289 678.131 125.006 678.716 129.835Z" fill="white"/>
</svg>
