<?xml version="1.0" encoding="UTF-8"?>
<svg id="uuid-8942d2e6-4295-434f-8a69-2bf7c5c09cbe" data-name="Layer 1" xmlns="http://www.w3.org/2000/svg" xmlns:xlink="http://www.w3.org/1999/xlink" viewBox="0 0 1594 2176">
  <defs>
    <clipPath id="uuid-ded1c12f-14f6-4ab2-80b8-a07c32154287">
      <rect x="-163" y="-4855" width="1920" height="7620" fill="none" stroke-width="0"/>
    </clipPath>
  </defs>
  <g clip-path="url(#uuid-ded1c12f-14f6-4ab2-80b8-a07c32154287)">
    <g>
      <rect x="490" width="614" height="180" fill="#fff" stroke-width="0"/>
      <g isolation="isolate">
        <text transform="translate(653.66 85.15)" fill="#0f0f0f" font-family="PPNeueMachina-PlainMedium, &apos;PP Neue Machina&apos;" font-size="30" isolation="isolate"><tspan x="0" y="0" letter-spacing="0em">W</tspan><tspan x="28.53" y="0" letter-spacing="0em">h</tspan><tspan x="47.1" y="0" letter-spacing="-.03em">a</tspan><tspan x="64.26" y="0">t do </tspan></text>
        <text transform="translate(845.09 85.15)" fill="#0f0f0f" font-family="PPNeueMachina-PlainMedium, &apos;PP Neue Machina&apos;" font-size="30" isolation="isolate"><tspan x="0" y="0"> </tspan><tspan x="9.51" y="0" letter-spacing="-.03em">w</tspan><tspan x="35.67" y="0">a</tspan><tspan x="53.82" y="0" letter-spacing="-.01em">n</tspan><tspan x="72.09" y="0">t</tspan></text>
        <text transform="translate(646.63 116.15)" fill="#0f0f0f" font-family="PPNeueMachina-PlainMedium, &apos;PP Neue Machina&apos;" font-size="30" isolation="isolate"><tspan x="0" y="0" letter-spacing="-.02em">f</tspan><tspan x="12.72" y="0" letter-spacing="-.04em">r</tspan><tspan x="25.2" y="0">om the </tspan><tspan x="140.04" y="0" letter-spacing="-.02em">I</tspan><tspan x="155.73" y="0">n</tspan><tspan x="174.3" y="0" letter-spacing="-.01em">d</tspan><tspan x="193.71" y="0" letter-spacing="-.02em">i</tspan><tspan x="206.58" y="0" letter-spacing="-.05em">e</tspan><tspan x="222.72" y="0" letter-spacing="-.04em">W</tspan><tspan x="250.11" y="0">e</tspan><tspan x="267.66" y="0" letter-spacing="-.02em">b</tspan><tspan x="286.71" y="0">?</tspan></text>
      </g>
      <g isolation="isolate">
        <text transform="translate(789.16 85.15)" fill="#0f0f0f" font-family="PPNeueMachina-InktrapMediumItalic, &apos;PP Neue Machina&apos;" font-size="30" font-style="italic" font-weight="500" isolation="isolate"><tspan x="0" y="0">you</tspan></text>
      </g>
      <rect x="980" y="638" width="614" height="180" fill="#fff" stroke-width="0"/>
      <g isolation="isolate">
        <text transform="translate(1107.63 723.15)" fill="#0f0f0f" font-family="PPNeueMachina-PlainMedium, &apos;PP Neue Machina&apos;" font-size="30" isolation="isolate"><tspan x="0" y="0" letter-spacing="0em">W</tspan><tspan x="28.53" y="0" letter-spacing="0em">h</tspan><tspan x="47.07" y="0" letter-spacing="-.03em">i</tspan><tspan x="59.85" y="0">ch </tspan><tspan x="105.72" y="0" letter-spacing="-.03em">o</tspan><tspan x="123.78" y="0">f the </tspan><tspan x="205.74" y="0" letter-spacing="-.03em">f</tspan><tspan x="218.22" y="0" letter-spacing="-.04em">o</tspan><tspan x="235.89" y="0" letter-spacing="0em">l</tspan><tspan x="249.54" y="0" letter-spacing="-.03em">l</tspan><tspan x="262.14" y="0" letter-spacing="-.02em">ow</tspan><tspan x="306.72" y="0">ing </tspan></text>
        <text transform="translate(1134.55 754.15)" fill="#0f0f0f" font-family="PPNeueMachina-PlainMedium, &apos;PP Neue Machina&apos;" font-size="30" isolation="isolate"><tspan x="0" y="0">de</tspan><tspan x="37.32" y="0" letter-spacing="0em">s</tspan><tspan x="52.92" y="0" letter-spacing="0em">c</tspan><tspan x="70.65" y="0" letter-spacing="-.02em">r</tspan><tspan x="83.67" y="0">i</tspan><tspan x="97.26" y="0" letter-spacing="0em">b</tspan><tspan x="117.15" y="0">es you </tspan><tspan x="225.03" y="0" letter-spacing="0em">b</tspan><tspan x="244.92" y="0">es</tspan><tspan x="277.95" y="0" letter-spacing="-.02em">t</tspan><tspan x="290.94" y="0">?</tspan></text>
      </g>
      <rect x="327" y="1265" width="614" height="180" fill="#fff" stroke-width="0"/>
      <g isolation="isolate">
        <text transform="translate(512.65 1350.15)" fill="#0f0f0f" font-family="PPNeueMachina-PlainMedium, &apos;PP Neue Machina&apos;" font-size="30" isolation="isolate"><tspan x="0" y="0">Do you </tspan><tspan x="115.26" y="0" letter-spacing="0em">a</tspan><tspan x="133.47" y="0" letter-spacing="0em">l</tspan><tspan x="146.94" y="0" letter-spacing="-.03em">r</tspan><tspan x="159.72" y="0">e</tspan><tspan x="177.27" y="0" letter-spacing="0em">a</tspan><tspan x="195.3" y="0" letter-spacing="-.01em">d</tspan><tspan x="214.65" y="0" letter-spacing="0em">y</tspan></text>
        <text transform="translate(474.14 1381.15)" fill="#0f0f0f" font-family="PPNeueMachina-PlainMedium, &apos;PP Neue Machina&apos;" font-size="30" isolation="isolate"><tspan x="0" y="0">h</tspan><tspan x="18.57" y="0" letter-spacing="-.05em">a</tspan><tspan x="35.1" y="0" letter-spacing="-.02em">v</tspan><tspan x="51.36" y="0">e a </tspan><tspan x="106.08" y="0" letter-spacing="-.04em">b</tspan><tspan x="124.71" y="0" letter-spacing="-.03em">l</tspan><tspan x="137.31" y="0">og r</tspan><tspan x="199.05" y="0" letter-spacing="-.02em">u</tspan><tspan x="217.17" y="0" letter-spacing="0em">n</tspan><tspan x="235.53" y="0" letter-spacing="0em">n</tspan><tspan x="254.07" y="0">in</tspan><tspan x="286.23" y="0" letter-spacing="-.01em">g</tspan><tspan x="305.64" y="0" letter-spacing="0em">?</tspan></text>
      </g>
      <rect y="514" width="614" height="429" fill="#ffb100" stroke-width="0"/>
      <g isolation="isolate">
        <text transform="translate(64 599)" fill="#0f0f0f" font-family="RedHatText-Light, &apos;Red Hat Text&apos;" font-size="30" font-variation-settings="&apos;wght&apos; 300" font-weight="300" isolation="isolate"><tspan x="0" y="0">Check out </tspan></text>
        <text transform="translate(393.68 639)" fill="#0f0f0f" font-family="RedHatText-Light, &apos;Red Hat Text&apos;" font-size="30" font-variation-settings="&apos;wght&apos; 300" font-weight="300" isolation="isolate"><tspan x="0" y="0" xml:space="preserve"> li</tspan><tspan x="19.5" y="0" letter-spacing="-.04em">k</tspan><tspan x="32.07" y="0" letter-spacing="0em">e: </tspan></text>
        <text transform="translate(252.47 759)" fill="#0f0f0f" font-family="RedHatText-Light, &apos;Red Hat Text&apos;" font-size="30" font-variation-settings="&apos;wght&apos; 300" font-weight="300" isolation="isolate"><tspan x="0" y="0" xml:space="preserve"> or </tspan></text>
        <text transform="translate(109 799)" fill="#0f0f0f" font-family="RedHatText-Light, &apos;Red Hat Text&apos;" font-size="30" font-variation-settings="&apos;wght&apos; 300" font-weight="300" isolation="isolate"><tspan x="0" y="0" letter-spacing="-.03em">f</tspan><tspan x="9.63" y="0">or</tspan><tspan x="36.63" y="0" letter-spacing="-.02em"> </tspan><tspan x="43.17" y="0" letter-spacing="-.05em">T</tspan><tspan x="59.64" y="0">wi</tspan><tspan x="86.1" y="0" letter-spacing="0em">t</tspan><tspan x="96.96" y="0" letter-spacing="-.01em">t</tspan><tspan x="107.07" y="0">er </tspan></text>
        <text transform="translate(194.23 839)" fill="#0f0f0f" font-family="RedHatText-Light, &apos;Red Hat Text&apos;" font-size="30" font-variation-settings="&apos;wght&apos; 300" font-weight="300" isolation="isolate"><tspan x="0" y="0"> </tspan><tspan x="7.14" y="0" letter-spacing="-.03em">f</tspan><tspan x="16.77" y="0" letter-spacing="0em">or </tspan><tspan x="50.91" y="0" letter-spacing="-.07em">F</tspan><tspan x="66.69" y="0">a</tspan><tspan x="82.05" y="0" letter-spacing="-.02em">c</tspan><tspan x="96.63" y="0">ebook </tspan></text>
        <text transform="translate(229.67 879)" fill="#0f0f0f" font-family="RedHatText-Light, &apos;Red Hat Text&apos;" font-size="30" font-variation-settings="&apos;wght&apos; 300" font-weight="300" isolation="isolate"><tspan x="0" y="0"> </tspan><tspan x="7.14" y="0" letter-spacing="-.03em">f</tspan><tspan x="16.77" y="0" letter-spacing="0em">or In</tspan><tspan x="74.04" y="0" letter-spacing="-.02em">s</tspan><tspan x="86.52" y="0" letter-spacing="0em">tag</tspan><tspan x="129.42" y="0" letter-spacing="-.03em">r</tspan><tspan x="138.51" y="0">am</tspan></text>
      </g>
      <g isolation="isolate">
        <text transform="translate(260.02 679)" fill="#0f0f0f" font-family="RedHatText-Light, &apos;Red Hat Text&apos;" font-size="30" font-variation-settings="&apos;wght&apos; 300" font-weight="300" isolation="isolate"><tspan x="0" y="0">, which lin</tspan><tspan x="123.78" y="0" letter-spacing="0em">k</tspan><tspan x="137.25" y="0">s </tspan><tspan x="157.47" y="0" letter-spacing="-.01em">t</tspan><tspan x="167.58" y="0">o the </tspan></text>
        <text transform="translate(109 719)" fill="#0f0f0f" font-family="RedHatText-Light, &apos;Red Hat Text&apos;" font-size="30" font-variation-settings="&apos;wght&apos; 300" font-weight="300" isolation="isolate"><tspan x="0" y="0" letter-spacing="-.08em">F</tspan><tspan x="15.48" y="0" letter-spacing="0em">edi</tspan><tspan x="55.11" y="0" letter-spacing="-.02em">v</tspan><tspan x="68.97" y="0" letter-spacing="0em">e</tspan><tspan x="85.41" y="0" letter-spacing="-.01em">r</tspan><tspan x="94.95" y="0" letter-spacing="0em">se and Blu</tspan><tspan x="228.99" y="0" letter-spacing="0em">e</tspan><tspan x="245.58" y="0">s</tspan><tspan x="258.65" y="0" letter-spacing="0em">k</tspan><tspan x="272.12" y="0">y </tspan></text>
      </g>
      <g isolation="isolate">
        <a xlink:href="https://pixelfed.org/">
          <g isolation="isolate">
            <path d="M98.4,872.13c-.9,0-1.67-.32-2.31-.96-.64-.64-.96-1.42-.96-2.34s.32-1.75.96-2.38,1.4-.95,2.28-.95,1.67.32,2.29.95.94,1.43.94,2.42c0,.92-.31,1.69-.94,2.32-.63.63-1.39.95-2.27.95Z" fill="#0f0f0f" stroke-width="0"/>
            <path d="M113.52,879v-21h9.39c1.44,0,2.68.28,3.72.84,1.04.56,1.85,1.33,2.43,2.29.58.97.87,2.11.87,3.41s-.29,2.35-.87,3.33c-.58.98-1.39,1.75-2.43,2.29s-2.28.83-3.72.83h-5.79v8.01h-3.6ZM117.12,868.05h5.22c1.28,0,2.26-.32,2.94-.96.68-.64,1.02-1.5,1.02-2.58s-.34-1.88-1.02-2.52c-.68-.64-1.65-.96-2.91-.96h-5.25v7.02Z" fill="#0f0f0f" stroke-width="0"/>
            <path d="M135.12,860.91c-.56,0-1.05-.21-1.46-.62-.41-.41-.61-.9-.61-1.49s.2-1.04.61-1.45c.41-.41.92-.62,1.52-.62.56,0,1.04.21,1.46.62.41.41.61.9.61,1.48s-.21,1.05-.61,1.46c-.41.41-.92.62-1.52.62ZM133.44,879v-15.03h3.39v15.03h-3.39Z" fill="#0f0f0f" stroke-width="0"/>
            <path d="M139.26,879l5.73-7.71-5.46-7.32h3.99l3.51,4.95,3.51-4.95h3.81l-5.49,7.35,5.73,7.68h-3.96l-3.78-5.25-3.78,5.25h-3.81Z" fill="#0f0f0f" stroke-width="0"/>
            <path d="M163.5,879.3c-1.44,0-2.74-.34-3.9-1.04-1.16-.69-2.08-1.62-2.76-2.8-.68-1.18-1.02-2.5-1.02-3.96s.32-2.8.96-3.97c.64-1.17,1.51-2.1,2.62-2.78,1.11-.68,2.35-1.02,3.73-1.02s2.58.33,3.66,1,1.93,1.59,2.55,2.76c.62,1.17.93,2.5.93,4v.84h-11.13c.12.8.38,1.52.79,2.15.41.63.94,1.12,1.59,1.47.65.35,1.35.53,2.12.53.7,0,1.36-.12,1.99-.36.63-.24,1.17-.58,1.6-1.02l2.19,1.98c-.9.76-1.83,1.32-2.79,1.68-.96.36-2.01.54-3.15.54ZM159.18,870.24h7.86c-.1-.76-.34-1.42-.72-1.96-.38-.55-.85-.99-1.4-1.32-.55-.33-1.16-.5-1.81-.5s-1.27.16-1.82.48c-.55.32-1,.75-1.36,1.3s-.61,1.21-.75,2Z" fill="#0f0f0f" stroke-width="0"/>
            <path d="M173.67,879v-21.51l3.42-.6v22.11h-3.42Z" fill="#0f0f0f" stroke-width="0"/>
            <path d="M181.68,879v-21h15.09v3.06h-11.49v6h7.92v2.97h-7.92v8.97h-3.6Z" fill="#0f0f0f" stroke-width="0"/>
            <path d="M204.57,879.3c-1.44,0-2.74-.34-3.9-1.04-1.16-.69-2.08-1.62-2.76-2.8-.68-1.18-1.02-2.5-1.02-3.96s.32-2.8.96-3.97c.64-1.17,1.51-2.1,2.62-2.78,1.11-.68,2.35-1.02,3.73-1.02s2.58.33,3.66,1,1.93,1.59,2.55,2.76c.62,1.17.93,2.5.93,4v.84h-11.13c.12.8.38,1.52.79,2.15.41.63.94,1.12,1.59,1.47.65.35,1.35.53,2.12.53.7,0,1.36-.12,1.99-.36.63-.24,1.17-.58,1.6-1.02l2.19,1.98c-.9.76-1.83,1.32-2.79,1.68-.96.36-2.01.54-3.15.54ZM200.25,870.24h7.86c-.1-.76-.34-1.42-.72-1.96-.38-.55-.85-.99-1.4-1.32-.55-.33-1.16-.5-1.81-.5s-1.27.16-1.82.48c-.55.32-1,.75-1.36,1.3s-.61,1.21-.75,2Z" fill="#0f0f0f" stroke-width="0"/>
            <path d="M220.92,879.15c-1.24,0-2.38-.35-3.4-1.04-1.03-.69-1.85-1.62-2.46-2.78-.61-1.16-.92-2.44-.92-3.84s.31-2.73.93-3.88c.62-1.15,1.46-2.07,2.54-2.75,1.07-.68,2.25-1.02,3.56-1.02.86,0,1.67.17,2.42.5s1.4.82,1.93,1.46v-8.31l3.42-.6v22.11h-3.39v-1.98c-.52.68-1.18,1.21-1.98,1.58-.8.37-1.68.56-2.64.56ZM221.97,876.3c.72,0,1.39-.14,2.01-.43.62-.29,1.13-.7,1.53-1.21v-6.3c-.42-.54-.94-.95-1.56-1.23-.62-.28-1.28-.42-1.98-.42-.86,0-1.63.21-2.3.62s-1.21.97-1.6,1.69c-.4.72-.6,1.55-.6,2.49s.19,1.71.58,2.43c.39.72.92,1.3,1.6,1.73.68.43,1.45.64,2.31.64Z" fill="#0f0f0f" stroke-width="0"/>
            <path d="M111,886.5v-3h120.03v3h-120.03Z" fill="#0f0f0f" stroke-width="0"/>
          </g>
        </a>
      </g>
      <g isolation="isolate">
        <a xlink:href="https://www.minds.com/">
          <g isolation="isolate">
            <path d="M98.4,832.13c-.9,0-1.67-.32-2.31-.96-.64-.64-.96-1.42-.96-2.34s.32-1.75.96-2.38,1.4-.95,2.28-.95,1.67.32,2.29.95.94,1.43.94,2.42c0,.92-.31,1.69-.94,2.32-.63.63-1.39.95-2.27.95Z" fill="#0f0f0f" stroke-width="0"/>
            <path d="M113.52,839v-21h4.68l6.15,12.75,6.12-12.75h4.68v21h-3.39v-16.44l-7.44,14.94-7.47-15.03v16.53h-3.33Z" fill="#0f0f0f" stroke-width="0"/>
            <path d="M141.42,820.91c-.56,0-1.05-.21-1.46-.62-.41-.41-.61-.9-.61-1.49s.2-1.04.61-1.45c.41-.41.92-.62,1.52-.62.56,0,1.04.21,1.46.62.41.41.61.9.61,1.48s-.21,1.05-.61,1.46c-.41.41-.92.62-1.52.62ZM139.74,839v-15.03h3.39v15.03h-3.39Z" fill="#0f0f0f" stroke-width="0"/>
            <path d="M147.3,839v-15.03h3.42v2.43c.56-.86,1.24-1.52,2.05-1.98s1.71-.69,2.69-.69c1.04,0,1.95.23,2.73.69.78.46,1.39,1.08,1.83,1.88.44.79.66,1.71.66,2.78v9.93h-3.36v-8.94c0-1.1-.3-1.97-.9-2.62-.6-.65-1.41-.97-2.43-.97-.66,0-1.27.15-1.84.45s-1.05.76-1.42,1.38v10.71h-3.42Z" fill="#0f0f0f" stroke-width="0"/>
            <path d="M170.88,839.15c-1.24,0-2.38-.35-3.4-1.04-1.03-.69-1.85-1.62-2.46-2.78-.61-1.16-.92-2.44-.92-3.84s.31-2.73.93-3.88c.62-1.15,1.46-2.07,2.54-2.75,1.07-.68,2.25-1.02,3.56-1.02.86,0,1.67.17,2.42.5s1.4.82,1.93,1.46v-8.31l3.42-.6v22.11h-3.39v-1.98c-.52.68-1.18,1.21-1.98,1.58-.8.37-1.68.56-2.64.56ZM171.93,836.3c.72,0,1.39-.14,2.01-.43.62-.29,1.13-.7,1.53-1.21v-6.3c-.42-.54-.94-.95-1.56-1.23-.62-.28-1.28-.42-1.98-.42-.86,0-1.63.21-2.3.62s-1.21.97-1.6,1.69c-.4.72-.6,1.55-.6,2.49s.19,1.71.58,2.43c.39.72.92,1.3,1.6,1.73.68.43,1.45.64,2.31.64Z" fill="#0f0f0f" stroke-width="0"/>
            <path d="M188.19,839.3c-1.28,0-2.48-.17-3.58-.51-1.11-.34-2.07-.85-2.87-1.53l1.59-2.25c.98.6,1.84,1.04,2.58,1.31.74.27,1.49.4,2.25.4.92,0,1.65-.19,2.21-.57.55-.38.83-.87.83-1.47,0-.46-.16-.82-.48-1.09-.32-.27-.86-.47-1.62-.62l-2.64-.45c-1.46-.28-2.55-.76-3.27-1.44-.72-.68-1.08-1.59-1.08-2.73,0-.92.24-1.72.72-2.42.48-.69,1.16-1.23,2.05-1.62.89-.39,1.91-.58,3.05-.58,1.04,0,2.05.15,3.03.45.98.3,1.94.75,2.88,1.35l-1.59,2.25c-.76-.5-1.52-.87-2.27-1.1-.75-.23-1.5-.34-2.23-.34-.8,0-1.44.16-1.9.46-.47.31-.71.74-.71,1.28,0,.48.15.84.46,1.09.31.25.85.44,1.64.56l2.67.51c1.52.26,2.64.73,3.36,1.42s1.08,1.6,1.08,2.75c0,.92-.27,1.75-.79,2.49-.53.74-1.26,1.33-2.19,1.75-.93.43-1.99.64-3.17.64Z" fill="#0f0f0f" stroke-width="0"/>
            <path d="M111,846.5v-3h84.36v3h-84.36Z" fill="#0f0f0f" stroke-width="0"/>
          </g>
        </a>
      </g>
      <a xlink:href="https://mastodon.social/explore">
        <g isolation="isolate">
          <text transform="translate(109 759)" fill="#0f0f0f" font-family="RedHatTextRoman-SemiBold, &apos;Red Hat Text&apos;" font-size="30" font-variation-settings="&apos;wght&apos; 600" font-weight="600" isolation="isolate" text-decoration="underline"><tspan x="0" y="0" letter-spacing="0em">M</tspan><tspan x="26.37" y="0">a</tspan><tspan x="42.87" y="0" letter-spacing="0em">s</tspan><tspan x="56.94" y="0" letter-spacing="0em">t</tspan><tspan x="69.12" y="0">odon</tspan></text>
        </g>
      </a>
      <g isolation="isolate">
        <a xlink:href="https://bsky.app/">
          <text transform="translate(293.48 759)" fill="#0f0f0f" font-family="RedHatTextRoman-SemiBold, &apos;Red Hat Text&apos;" font-size="30" font-variation-settings="&apos;wght&apos; 600" font-weight="600" isolation="isolate" text-decoration="underline"><tspan x="0" y="0">Blu</tspan><tspan x="45.9" y="0" letter-spacing="0em">e</tspan><tspan x="63.24" y="0">s</tspan><tspan x="77.61" y="0" letter-spacing="0em">k</tspan><tspan x="93.99" y="0">y</tspan></text>
        </a>
      </g>
      <a xlink:href="https://micro.blog">
        <g isolation="isolate">
          <g isolation="isolate">
            <path d="M98.4,672.13c-.9,0-1.67-.32-2.31-.96-.64-.64-.96-1.42-.96-2.34s.32-1.75.96-2.38,1.4-.95,2.28-.95,1.67.32,2.29.95.94,1.43.94,2.42c0,.92-.31,1.69-.94,2.32-.63.63-1.39.95-2.27.95Z" fill="#0f0f0f" stroke-width="0"/>
            <path d="M113.07,679v-15.03h3.42v2.37c.56-.86,1.21-1.51,1.96-1.95.75-.44,1.57-.66,2.48-.66,1.04,0,1.94.26,2.71.78.77.52,1.34,1.22,1.73,2.1.6-.94,1.31-1.66,2.15-2.15.83-.49,1.77-.73,2.83-.73.96,0,1.81.23,2.55.69.74.46,1.32,1.1,1.74,1.92.42.82.63,1.77.63,2.85v9.81h-3.42v-9.09c0-1.06-.27-1.9-.79-2.52-.53-.62-1.27-.93-2.21-.93-.6,0-1.15.15-1.65.45-.5.3-.95.75-1.35,1.35.02.14.03.29.03.45v10.29h-3.36v-9.09c0-1.06-.28-1.9-.83-2.52-.55-.62-1.29-.93-2.23-.93-1.22,0-2.21.58-2.97,1.74v10.8h-3.42Z" fill="#0f0f0f" stroke-width="0"/>
            <path d="M141.03,660.91c-.56,0-1.05-.21-1.46-.62-.41-.41-.61-.9-.61-1.49s.2-1.04.61-1.45c.41-.41.92-.62,1.52-.62.56,0,1.04.21,1.46.62.41.41.61.9.61,1.48s-.21,1.05-.61,1.46c-.41.41-.92.62-1.52.62ZM139.35,679v-15.03h3.39v15.03h-3.39Z" fill="#0f0f0f" stroke-width="0"/>
            <path d="M153.84,679.27c-1.42,0-2.71-.34-3.85-1.03-1.15-.69-2.06-1.62-2.73-2.79-.67-1.17-1-2.49-1-3.95s.33-2.78,1-3.95c.67-1.17,1.58-2.1,2.73-2.79,1.15-.69,2.43-1.03,3.85-1.03,1.18,0,2.29.22,3.33.67,1.04.45,1.93,1.08,2.67,1.88l-2.13,2.19c-.5-.58-1.07-1.02-1.71-1.32-.64-.3-1.32-.45-2.04-.45-.8,0-1.53.21-2.19.64-.66.43-1.18,1-1.56,1.73-.38.72-.57,1.53-.57,2.43s.19,1.74.57,2.46c.38.72.9,1.29,1.56,1.71.66.42,1.39.63,2.19.63.72,0,1.4-.15,2.04-.45.64-.3,1.21-.74,1.71-1.32l2.13,2.22c-.74.8-1.63,1.42-2.67,1.86-1.04.44-2.15.66-3.33.66Z" fill="#0f0f0f" stroke-width="0"/>
            <path d="M162.6,679v-15.03h3.42v3.24c.44-1.14,1-2.01,1.69-2.61.69-.6,1.49-.9,2.42-.9.32.02.59.04.81.08.22.03.45.1.69.22v3c-.28-.14-.58-.24-.9-.3-.32-.06-.64-.09-.96-.09-.82,0-1.56.22-2.21.66-.65.44-1.17,1.06-1.54,1.86v9.87h-3.42Z" fill="#0f0f0f" stroke-width="0"/>
            <path d="M180.6,679.27c-1.44,0-2.73-.34-3.87-1.02s-2.04-1.61-2.7-2.79c-.66-1.18-.99-2.5-.99-3.96s.33-2.8.99-3.97c.66-1.17,1.56-2.1,2.7-2.78s2.43-1.02,3.87-1.02,2.72.34,3.85,1.02c1.13.68,2.02,1.61,2.68,2.78.66,1.17.99,2.49.99,3.94s-.33,2.81-.99,3.99c-.66,1.18-1.56,2.11-2.68,2.79-1.13.68-2.42,1.02-3.85,1.02ZM180.6,676.39c.82,0,1.54-.21,2.17-.64.63-.43,1.12-1.01,1.48-1.75.36-.74.54-1.57.54-2.49s-.18-1.77-.54-2.5c-.36-.73-.85-1.31-1.48-1.74-.63-.43-1.35-.64-2.17-.64s-1.55.21-2.19.64c-.64.43-1.14,1.01-1.5,1.74-.36.73-.54,1.57-.54,2.5s.18,1.75.54,2.49c.36.74.86,1.33,1.5,1.75.64.43,1.37.64,2.19.64Z" fill="#0f0f0f" stroke-width="0"/>
            <path d="M192.69,679.27c-.58,0-1.08-.21-1.48-.64-.41-.43-.62-.93-.62-1.51,0-.62.21-1.14.62-1.56.41-.42.92-.63,1.51-.63s1.07.21,1.47.63c.4.42.6.94.6,1.56,0,.58-.21,1.08-.62,1.51-.41.43-.9.64-1.48.64Z" fill="#0f0f0f" stroke-width="0"/>
            <path d="M198.51,679v-21.42l3.42-.57v8.97c.54-.68,1.2-1.21,1.99-1.58s1.67-.56,2.62-.56c1.28,0,2.43.35,3.45,1.04,1.02.69,1.83,1.61,2.43,2.75.6,1.14.9,2.43.9,3.87s-.31,2.71-.93,3.86c-.62,1.15-1.46,2.07-2.5,2.76-1.05.69-2.25,1.04-3.58,1.04-.86,0-1.68-.18-2.45-.54-.77-.36-1.44-.87-1.99-1.53v1.92h-3.36ZM205.53,676.3c.86,0,1.62-.21,2.29-.62.67-.41,1.2-.98,1.59-1.71.39-.73.58-1.55.58-2.47s-.19-1.74-.58-2.46-.93-1.29-1.6-1.71c-.68-.42-1.44-.63-2.28-.63-.74,0-1.42.15-2.04.43-.62.29-1.14.71-1.56,1.25v6.24c.44.52.97.93,1.6,1.23.63.3,1.29.45,1.99.45Z" fill="#0f0f0f" stroke-width="0"/>
            <path d="M216.84,679v-21.51l3.42-.6v22.11h-3.42Z" fill="#0f0f0f" stroke-width="0"/>
            <path d="M231.3,679.27c-1.44,0-2.73-.34-3.87-1.02s-2.04-1.61-2.7-2.79c-.66-1.18-.99-2.5-.99-3.96s.33-2.8.99-3.97c.66-1.17,1.56-2.1,2.7-2.78s2.43-1.02,3.87-1.02,2.72.34,3.85,1.02c1.13.68,2.02,1.61,2.68,2.78.66,1.17.99,2.49.99,3.94s-.33,2.81-.99,3.99c-.66,1.18-1.56,2.11-2.68,2.79-1.13.68-2.42,1.02-3.85,1.02ZM231.3,676.39c.82,0,1.54-.21,2.17-.64.63-.43,1.12-1.01,1.48-1.75.36-.74.54-1.57.54-2.49s-.18-1.77-.54-2.5c-.36-.73-.85-1.31-1.48-1.74-.63-.43-1.35-.64-2.17-.64s-1.55.21-2.19.64c-.64.43-1.14,1.01-1.5,1.74-.36.73-.54,1.57-.54,2.5s.18,1.75.54,2.49c.36.74.86,1.33,1.5,1.75.64.43,1.37.64,2.19.64Z" fill="#0f0f0f" stroke-width="0"/>
            <path d="M249.36,685.57c-1.06,0-2.11-.12-3.15-.38-1.04-.25-2-.61-2.88-1.07l1.17-2.52c.88.42,1.71.73,2.48.94s1.52.32,2.27.32c1.24,0,2.19-.28,2.83-.84.65-.56.98-1.39.98-2.49v-2.58c-.54.68-1.21,1.21-2.01,1.58s-1.67.55-2.61.55c-1.24,0-2.38-.34-3.4-1.04-1.03-.69-1.85-1.61-2.46-2.76-.61-1.15-.92-2.43-.92-3.85s.31-2.68.93-3.84c.62-1.16,1.46-2.07,2.54-2.74,1.07-.67,2.25-1.01,3.56-1.01.88,0,1.7.17,2.46.51.76.34,1.41.84,1.95,1.5v-1.89h3.33v15.6c0,1.92-.6,3.4-1.81,4.44-1.21,1.04-2.96,1.56-5.23,1.56ZM249.48,676.27c.72,0,1.38-.14,1.99-.43.61-.29,1.13-.69,1.58-1.21v-6.3c-.44-.52-.97-.92-1.59-1.2-.62-.28-1.28-.42-1.98-.42-.86,0-1.63.21-2.3.62s-1.21.97-1.6,1.68c-.4.71-.6,1.54-.6,2.47s.19,1.72.58,2.45c.39.73.92,1.3,1.6,1.72.68.42,1.45.63,2.31.63Z" fill="#0f0f0f" stroke-width="0"/>
            <path d="M111,686.5v-3h147.51v3H111Z" fill="#0f0f0f" stroke-width="0"/>
          </g>
        </g>
      </a>
      <a xlink:href="https://www.youtube.com/watch?v=HfU20EtgpC8">
        <g isolation="isolate">
          <g isolation="isolate">
            <text transform="translate(207.32 599)" fill="#0f0f0f" font-family="RedHatTextRoman-SemiBold, &apos;Red Hat Text&apos;" font-size="30" font-variation-settings="&apos;wght&apos; 600" font-weight="600" isolation="isolate" text-decoration="underline"><tspan x="0" y="0">d</tspan><tspan x="18.3" y="0" letter-spacing="0em">e</tspan><tspan x="35.55" y="0" letter-spacing="-.01em">c</tspan><tspan x="50.79" y="0">e</tspan><tspan x="67.98" y="0" letter-spacing="-.02em">n</tspan><tspan x="84.99" y="0">t</tspan><tspan x="97.41" y="0" letter-spacing="-.01em">r</tspan><tspan x="108.75" y="0" letter-spacing="0em">ali</tspan><tspan x="140.37" y="0" letter-spacing="0em">s</tspan><tspan x="154.89" y="0" letter-spacing="0em">e</tspan><tspan x="172.14" y="0">d </tspan><tspan x="197.19" y="0" letter-spacing="0em">s</tspan><tspan x="211.71" y="0" xml:space="preserve">ocial </tspan></text>
            <text transform="translate(64 639)" fill="#0f0f0f" font-family="RedHatTextRoman-SemiBold, &apos;Red Hat Text&apos;" font-size="30" font-variation-settings="&apos;wght&apos; 600" font-weight="600" isolation="isolate" text-decoration="underline"><tspan x="0" y="0">m</tspan><tspan x="26.28" y="0" letter-spacing="0em">e</tspan><tspan x="43.53" y="0" letter-spacing="0em">dia on the </tspan><tspan x="188.58" y="0" letter-spacing="-.09em">F</tspan><tspan x="204.9" y="0" letter-spacing="0em">e</tspan><tspan x="222.15" y="0">di</tspan><tspan x="248.01" y="0" letter-spacing="-.02em">v</tspan><tspan x="263.81" y="0">e</tspan><tspan x="281" y="0" letter-spacing="0em">r</tspan><tspan x="292.85" y="0" letter-spacing="0em">s</tspan><tspan x="307.37" y="0">e</tspan></text>
          </g>
        </g>
      </a>
      <rect y="1584" width="450" height="349" fill="#ffb100" stroke-width="0"/>
      <a xlink:href="https://indieweb.org/Tutorial_Set_up_an_Indie_Website_using_Blogger">
        <g isolation="isolate">
          <g isolation="isolate">
            <path d="M89.77,1782.13c-.9,0-1.67-.32-2.31-.96-.64-.64-.96-1.42-.96-2.34s.32-1.75.96-2.38,1.4-.95,2.28-.95,1.67.32,2.29.95.94,1.43.94,2.42c0,.92-.31,1.69-.94,2.32-.63.63-1.39.95-2.27.95Z" fill="#0f0f0f" stroke-width="0"/>
            <path d="M104.89,1789v-21h9.36c1.3,0,2.45.23,3.45.69,1,.46,1.78,1.1,2.34,1.93.56.83.84,1.79.84,2.89s-.31,2.03-.93,2.84c-.62.81-1.45,1.42-2.49,1.84,1.26.36,2.27.97,3.02,1.84s1.12,1.91,1.12,3.11-.3,2.18-.88,3.07c-.59.89-1.4,1.58-2.43,2.06-1.03.48-2.25.72-3.65.72h-9.75ZM108.49,1776.85h5.37c1.04,0,1.86-.27,2.47-.81.61-.54.92-1.26.92-2.16s-.31-1.61-.92-2.14c-.61-.53-1.44-.79-2.47-.79h-5.37v5.91ZM108.49,1786.06h5.7c1.14,0,2.05-.29,2.73-.88.68-.59,1.02-1.38,1.02-2.35s-.33-1.76-1-2.34c-.67-.58-1.57-.87-2.71-.87h-5.73v6.45Z" fill="#0f0f0f" stroke-width="0"/>
            <path d="M125.32,1789v-21.51l3.42-.6v22.11h-3.42Z" fill="#0f0f0f" stroke-width="0"/>
            <path d="M139.78,1789.27c-1.44,0-2.73-.34-3.87-1.02s-2.04-1.61-2.7-2.79c-.66-1.18-.99-2.5-.99-3.96s.33-2.8.99-3.97c.66-1.17,1.56-2.1,2.7-2.78s2.43-1.02,3.87-1.02,2.72.34,3.85,1.02c1.13.68,2.02,1.61,2.68,2.78.66,1.17.99,2.49.99,3.94s-.33,2.81-.99,3.99c-.66,1.18-1.56,2.11-2.68,2.79-1.13.68-2.42,1.02-3.85,1.02ZM139.78,1786.39c.82,0,1.54-.21,2.17-.64.63-.43,1.12-1.01,1.48-1.75.36-.74.54-1.57.54-2.49s-.18-1.77-.54-2.5c-.36-.73-.85-1.31-1.48-1.74-.63-.43-1.35-.64-2.17-.64s-1.55.21-2.19.64c-.64.43-1.14,1.01-1.5,1.74-.36.73-.54,1.57-.54,2.5s.18,1.75.54,2.49c.36.74.86,1.33,1.5,1.75.64.43,1.37.64,2.19.64Z" fill="#0f0f0f" stroke-width="0"/>
            <path d="M157.84,1795.57c-1.06,0-2.11-.12-3.15-.38-1.04-.25-2-.61-2.88-1.07l1.17-2.52c.88.42,1.71.73,2.48.94s1.52.32,2.27.32c1.24,0,2.19-.28,2.83-.84.65-.56.98-1.39.98-2.49v-2.58c-.54.68-1.21,1.21-2.01,1.58s-1.67.55-2.61.55c-1.24,0-2.38-.34-3.4-1.04-1.03-.69-1.85-1.61-2.46-2.76-.61-1.15-.92-2.43-.92-3.85s.31-2.68.93-3.84c.62-1.16,1.46-2.07,2.54-2.74,1.07-.67,2.25-1.01,3.56-1.01.88,0,1.7.17,2.46.51.76.34,1.41.84,1.95,1.5v-1.89h3.33v15.6c0,1.92-.6,3.4-1.81,4.44-1.21,1.04-2.96,1.56-5.23,1.56ZM157.96,1786.27c.72,0,1.38-.14,1.99-.43.61-.29,1.13-.69,1.58-1.21v-6.3c-.44-.52-.97-.92-1.59-1.2-.62-.28-1.28-.42-1.98-.42-.86,0-1.63.21-2.3.62s-1.21.97-1.6,1.68c-.4.71-.6,1.54-.6,2.47s.19,1.72.58,2.45c.39.73.92,1.3,1.6,1.72.68.42,1.45.63,2.31.63Z" fill="#0f0f0f" stroke-width="0"/>
            <path d="M176.11,1795.57c-1.06,0-2.11-.12-3.15-.38-1.04-.25-2-.61-2.88-1.07l1.17-2.52c.88.42,1.71.73,2.48.94s1.52.32,2.27.32c1.24,0,2.19-.28,2.83-.84.65-.56.98-1.39.98-2.49v-2.58c-.54.68-1.21,1.21-2.01,1.58s-1.67.55-2.61.55c-1.24,0-2.38-.34-3.4-1.04-1.03-.69-1.85-1.61-2.46-2.76-.61-1.15-.92-2.43-.92-3.85s.31-2.68.93-3.84c.62-1.16,1.46-2.07,2.54-2.74,1.07-.67,2.25-1.01,3.56-1.01.88,0,1.7.17,2.46.51.76.34,1.41.84,1.95,1.5v-1.89h3.33v15.6c0,1.92-.6,3.4-1.81,4.44-1.21,1.04-2.96,1.56-5.23,1.56ZM176.23,1786.27c.72,0,1.38-.14,1.99-.43.61-.29,1.13-.69,1.58-1.21v-6.3c-.44-.52-.97-.92-1.59-1.2-.62-.28-1.28-.42-1.98-.42-.86,0-1.63.21-2.3.62s-1.21.97-1.6,1.68c-.4.71-.6,1.54-.6,2.47s.19,1.72.58,2.45c.39.73.92,1.3,1.6,1.72.68.42,1.45.63,2.31.63Z" fill="#0f0f0f" stroke-width="0"/>
            <path d="M194.35,1789.3c-1.44,0-2.74-.34-3.9-1.04-1.16-.69-2.08-1.62-2.76-2.8-.68-1.18-1.02-2.5-1.02-3.96s.32-2.8.96-3.97c.64-1.17,1.51-2.1,2.62-2.78,1.11-.68,2.35-1.02,3.73-1.02s2.58.33,3.66,1,1.93,1.59,2.55,2.76c.62,1.17.93,2.5.93,4v.84h-11.13c.12.8.38,1.52.79,2.15.41.63.94,1.12,1.59,1.47.65.35,1.35.53,2.12.53.7,0,1.36-.12,1.99-.36.63-.24,1.17-.58,1.6-1.02l2.19,1.98c-.9.76-1.83,1.32-2.79,1.68-.96.36-2.01.54-3.15.54ZM190.03,1780.24h7.86c-.1-.76-.34-1.42-.72-1.96-.38-.55-.85-.99-1.4-1.32-.55-.33-1.16-.5-1.81-.5s-1.27.16-1.82.48c-.55.32-1,.75-1.36,1.3s-.61,1.21-.75,2Z" fill="#0f0f0f" stroke-width="0"/>
            <path d="M204.52,1789v-15.03h3.42v3.24c.44-1.14,1-2.01,1.69-2.61.69-.6,1.49-.9,2.42-.9.32.02.59.04.81.08.22.03.45.1.69.22v3c-.28-.14-.58-.24-.9-.3-.32-.06-.64-.09-.96-.09-.82,0-1.56.22-2.21.66-.65.44-1.17,1.06-1.54,1.86v9.87h-3.42Z" fill="#0f0f0f" stroke-width="0"/>
            <path d="M102.37,1796.5v-3h118.62v3h-118.62Z" fill="#0f0f0f" stroke-width="0"/>
          </g>
        </g>
      </a>
      <g isolation="isolate">
        <a xlink:href="https://indieweb.org/Tutorial_Set_up_an_Indie_Website_Using_WordPress_Com">
          <g isolation="isolate">
            <path d="M89.77,1742.13c-.9,0-1.67-.32-2.31-.96-.64-.64-.96-1.42-.96-2.34s.32-1.75.96-2.38,1.4-.95,2.28-.95,1.67.32,2.29.95.94,1.43.94,2.42c0,.92-.31,1.69-.94,2.32-.63.63-1.39.95-2.27.95Z" fill="#0f0f0f" stroke-width="0"/>
            <path d="M108.04,1749l-4.59-21h3.72l3.09,15.39,4.5-15.39h3.42l4.5,15.36,3.12-15.36h3.54l-4.59,21h-3.75l-4.56-15.87-4.62,15.87h-3.78Z" fill="#0f0f0f" stroke-width="0"/>
            <path d="M138.22,1749.27c-1.44,0-2.73-.34-3.87-1.02s-2.04-1.61-2.7-2.79c-.66-1.18-.99-2.5-.99-3.96s.33-2.8.99-3.97c.66-1.17,1.56-2.1,2.7-2.78s2.43-1.02,3.87-1.02,2.72.34,3.85,1.02c1.13.68,2.02,1.61,2.68,2.78.66,1.17.99,2.49.99,3.94s-.33,2.81-.99,3.99c-.66,1.18-1.56,2.11-2.68,2.79-1.13.68-2.42,1.02-3.85,1.02ZM138.22,1746.39c.82,0,1.54-.21,2.17-.64.63-.43,1.12-1.01,1.48-1.75.36-.74.54-1.57.54-2.49s-.18-1.77-.54-2.5c-.36-.73-.85-1.31-1.48-1.74-.63-.43-1.35-.64-2.17-.64s-1.55.21-2.19.64c-.64.43-1.14,1.01-1.5,1.74-.36.73-.54,1.57-.54,2.5s.18,1.75.54,2.49c.36.74.86,1.33,1.5,1.75.64.43,1.37.64,2.19.64Z" fill="#0f0f0f" stroke-width="0"/>
            <path d="M149.23,1749v-15.03h3.42v3.24c.44-1.14,1-2.01,1.69-2.61.69-.6,1.49-.9,2.42-.9.32.02.59.04.81.08.22.03.45.1.69.22v3c-.28-.14-.58-.24-.9-.3-.32-.06-.64-.09-.96-.09-.82,0-1.56.22-2.21.66-.65.44-1.17,1.06-1.54,1.86v9.87h-3.42Z" fill="#0f0f0f" stroke-width="0"/>
            <path d="M166.45,1749.15c-1.24,0-2.38-.35-3.4-1.04-1.03-.69-1.85-1.62-2.46-2.78-.61-1.16-.92-2.44-.92-3.84s.31-2.73.93-3.88c.62-1.15,1.46-2.07,2.54-2.75,1.07-.68,2.25-1.02,3.56-1.02.86,0,1.67.17,2.42.5s1.4.82,1.93,1.46v-8.31l3.42-.6v22.11h-3.39v-1.98c-.52.68-1.18,1.21-1.98,1.58-.8.37-1.68.56-2.64.56ZM167.5,1746.3c.72,0,1.39-.14,2.01-.43.62-.29,1.13-.7,1.53-1.21v-6.3c-.42-.54-.94-.95-1.56-1.23-.62-.28-1.28-.42-1.98-.42-.86,0-1.63.21-2.3.62s-1.21.97-1.6,1.69c-.4.72-.6,1.55-.6,2.49s.19,1.71.58,2.43c.39.72.92,1.3,1.6,1.73.68.43,1.45.64,2.31.64Z" fill="#0f0f0f" stroke-width="0"/>
            <path d="M178.63,1755.27v-21.3h3.36v2.13c.56-.72,1.24-1.27,2.04-1.67.8-.39,1.68-.58,2.64-.58,1.28,0,2.43.35,3.45,1.04,1.02.69,1.83,1.61,2.43,2.75.6,1.14.9,2.43.9,3.87s-.31,2.71-.93,3.86c-.62,1.15-1.46,2.07-2.5,2.76-1.05.69-2.25,1.04-3.58,1.04-.88,0-1.69-.17-2.43-.5-.74-.33-1.39-.8-1.95-1.42v8.04h-3.42ZM185.65,1746.3c.86,0,1.62-.21,2.29-.62.67-.41,1.2-.98,1.59-1.71.39-.73.58-1.55.58-2.47s-.19-1.74-.58-2.46-.93-1.29-1.6-1.71c-.68-.42-1.44-.63-2.28-.63-.74,0-1.42.15-2.04.43-.62.29-1.14.71-1.56,1.25v6.24c.44.52.97.93,1.6,1.23.63.3,1.29.45,1.99.45Z" fill="#0f0f0f" stroke-width="0"/>
            <path d="M196.96,1749v-15.03h3.42v3.24c.44-1.14,1-2.01,1.69-2.61.69-.6,1.49-.9,2.42-.9.32.02.59.04.81.08.22.03.45.1.69.22v3c-.28-.14-.58-.24-.9-.3-.32-.06-.64-.09-.96-.09-.82,0-1.56.22-2.21.66-.65.44-1.17,1.06-1.54,1.86v9.87h-3.42Z" fill="#0f0f0f" stroke-width="0"/>
            <path d="M215.08,1749.3c-1.44,0-2.74-.34-3.9-1.04-1.16-.69-2.08-1.62-2.76-2.8-.68-1.18-1.02-2.5-1.02-3.96s.32-2.8.96-3.97c.64-1.17,1.51-2.1,2.62-2.78,1.11-.68,2.35-1.02,3.73-1.02s2.58.33,3.66,1,1.93,1.59,2.55,2.76c.62,1.17.93,2.5.93,4v.84h-11.13c.12.8.38,1.52.79,2.15.41.63.94,1.12,1.59,1.47.65.35,1.35.53,2.12.53.7,0,1.36-.12,1.99-.36.63-.24,1.17-.58,1.6-1.02l2.19,1.98c-.9.76-1.83,1.32-2.79,1.68-.96.36-2.01.54-3.15.54ZM210.76,1740.24h7.86c-.1-.76-.34-1.42-.72-1.96-.38-.55-.85-.99-1.4-1.32-.55-.33-1.16-.5-1.81-.5s-1.27.16-1.82.48c-.55.32-1,.75-1.36,1.3s-.61,1.21-.75,2Z" fill="#0f0f0f" stroke-width="0"/>
            <path d="M230.53,1749.3c-1.28,0-2.48-.17-3.58-.51-1.11-.34-2.07-.85-2.87-1.53l1.59-2.25c.98.6,1.84,1.04,2.58,1.31.74.27,1.49.4,2.25.4.92,0,1.65-.19,2.21-.57.55-.38.83-.87.83-1.47,0-.46-.16-.82-.48-1.09-.32-.27-.86-.47-1.62-.62l-2.64-.45c-1.46-.28-2.55-.76-3.27-1.44-.72-.68-1.08-1.59-1.08-2.73,0-.92.24-1.72.72-2.42.48-.69,1.16-1.23,2.05-1.62.89-.39,1.91-.58,3.05-.58,1.04,0,2.05.15,3.03.45.98.3,1.94.75,2.88,1.35l-1.59,2.25c-.76-.5-1.52-.87-2.27-1.1-.75-.23-1.5-.34-2.23-.34-.8,0-1.44.16-1.9.46-.47.31-.71.74-.71,1.28,0,.48.15.84.46,1.09.31.25.85.44,1.64.56l2.67.51c1.52.26,2.64.73,3.36,1.42s1.08,1.6,1.08,2.75c0,.92-.27,1.75-.79,2.49-.53.74-1.26,1.33-2.19,1.75-.93.43-1.99.64-3.17.64Z" fill="#0f0f0f" stroke-width="0"/>
            <path d="M244.9,1749.3c-1.28,0-2.48-.17-3.58-.51-1.11-.34-2.07-.85-2.87-1.53l1.59-2.25c.98.6,1.84,1.04,2.58,1.31.74.27,1.49.4,2.25.4.92,0,1.65-.19,2.21-.57.55-.38.83-.87.83-1.47,0-.46-.16-.82-.48-1.09-.32-.27-.86-.47-1.62-.62l-2.64-.45c-1.46-.28-2.55-.76-3.27-1.44-.72-.68-1.08-1.59-1.08-2.73,0-.92.24-1.72.72-2.42.48-.69,1.16-1.23,2.05-1.62.89-.39,1.91-.58,3.05-.58,1.04,0,2.05.15,3.03.45.98.3,1.94.75,2.88,1.35l-1.59,2.25c-.76-.5-1.52-.87-2.27-1.1-.75-.23-1.5-.34-2.23-.34-.8,0-1.44.16-1.9.46-.47.31-.71.74-.71,1.28,0,.48.15.84.46,1.09.31.25.85.44,1.64.56l2.67.51c1.52.26,2.64.73,3.36,1.42s1.08,1.6,1.08,2.75c0,.92-.27,1.75-.79,2.49-.53.74-1.26,1.33-2.19,1.75-.93.43-1.99.64-3.17.64Z" fill="#0f0f0f" stroke-width="0"/>
            <path d="M102.37,1756.5v-3h156.45v3H102.37Z" fill="#0f0f0f" stroke-width="0"/>
          </g>
        </a>
      </g>
      <a xlink:href="https://www.drupal.org/project/indieweb">
        <g isolation="isolate">
          <g isolation="isolate">
            <path d="M89.77,1822.13c-.9,0-1.67-.32-2.31-.96-.64-.64-.96-1.42-.96-2.34s.32-1.75.96-2.38,1.4-.95,2.28-.95,1.67.32,2.29.95.94,1.43.94,2.42c0,.92-.31,1.69-.94,2.32-.63.63-1.39.95-2.27.95Z" fill="#0f0f0f" stroke-width="0"/>
            <path d="M104.89,1829v-21h7.68c1.5,0,2.89.27,4.17.79,1.28.53,2.39,1.28,3.34,2.24.95.96,1.69,2.08,2.22,3.34.53,1.27.79,2.65.79,4.12s-.27,2.86-.79,4.12c-.53,1.27-1.27,2.38-2.22,3.34-.95.96-2.06,1.71-3.34,2.24-1.28.53-2.67.79-4.17.79h-7.68ZM108.49,1825.88h4.14c1.28,0,2.43-.33,3.44-.97,1.01-.65,1.82-1.54,2.43-2.66.61-1.12.92-2.37.92-3.75s-.31-2.63-.92-3.75c-.61-1.12-1.42-2-2.43-2.66-1.01-.65-2.16-.97-3.44-.97h-4.14v14.76Z" fill="#0f0f0f" stroke-width="0"/>
            <path d="M126.7,1829v-15.03h3.42v3.24c.44-1.14,1-2.01,1.69-2.61.69-.6,1.49-.9,2.42-.9.32.02.59.04.81.08.22.03.45.1.69.22v3c-.28-.14-.58-.24-.9-.3-.32-.06-.64-.09-.96-.09-.82,0-1.56.22-2.21.66-.65.44-1.17,1.06-1.54,1.86v9.87h-3.42Z" fill="#0f0f0f" stroke-width="0"/>
            <path d="M143.47,1829.24c-1.02,0-1.92-.23-2.7-.69s-1.4-1.09-1.85-1.89c-.45-.8-.67-1.72-.67-2.76v-9.93h3.42v8.94c0,1.1.29,1.98.89,2.62.59.65,1.4.97,2.42.97.7,0,1.32-.15,1.86-.45.54-.3,1.01-.75,1.41-1.35v-10.74h3.39v15.03h-3.39v-2.43c-.58.88-1.27,1.54-2.07,2-.8.45-1.7.67-2.7.67Z" fill="#0f0f0f" stroke-width="0"/>
            <path d="M155.8,1835.27v-21.3h3.36v2.13c.56-.72,1.24-1.27,2.04-1.67.8-.39,1.68-.58,2.64-.58,1.28,0,2.43.35,3.45,1.04,1.02.69,1.83,1.61,2.43,2.75.6,1.14.9,2.43.9,3.87s-.31,2.71-.93,3.86c-.62,1.15-1.46,2.07-2.5,2.76-1.05.69-2.25,1.04-3.58,1.04-.88,0-1.69-.17-2.43-.5-.74-.33-1.39-.8-1.95-1.42v8.04h-3.42ZM162.82,1826.3c.86,0,1.62-.21,2.29-.62.67-.41,1.2-.98,1.59-1.71.39-.73.58-1.55.58-2.47s-.19-1.74-.58-2.46-.93-1.29-1.6-1.71c-.68-.42-1.44-.63-2.28-.63-.74,0-1.42.15-2.04.43-.62.29-1.14.71-1.56,1.25v6.24c.44.52.97.93,1.6,1.23.63.3,1.29.45,1.99.45Z" fill="#0f0f0f" stroke-width="0"/>
            <path d="M178.87,1829.24c-1.04,0-1.96-.19-2.76-.57-.8-.38-1.43-.92-1.89-1.6-.46-.69-.69-1.49-.69-2.39s.24-1.7.72-2.35c.48-.65,1.14-1.16,2-1.52.85-.36,1.86-.54,3.04-.54.7,0,1.39.08,2.07.23.68.15,1.34.4,1.98.74v-1.68c0-1-.29-1.75-.87-2.25-.58-.5-1.43-.75-2.55-.75-.64,0-1.32.1-2.02.29-.71.19-1.51.49-2.39.88l-1.2-2.46c2.2-1.02,4.27-1.53,6.21-1.53s3.51.47,4.59,1.42,1.62,2.29,1.62,4.04v9.81h-3.39v-1.56c-.64.62-1.33,1.08-2.07,1.36-.74.29-1.54.44-2.4.44ZM176.71,1824.62c0,.7.27,1.25.83,1.67.55.41,1.3.62,2.26.62.68,0,1.31-.11,1.91-.33.59-.22,1.13-.54,1.63-.96v-2.43c-.52-.24-1.06-.42-1.63-.55-.57-.13-1.19-.2-1.85-.2-.98,0-1.75.2-2.31.6s-.84.93-.84,1.59Z" fill="#0f0f0f" stroke-width="0"/>
            <path d="M190.78,1829v-21.51l3.42-.6v22.11h-3.42Z" fill="#0f0f0f" stroke-width="0"/>
            <path d="M102.37,1836.5v-3h100.65v3h-100.65Z" fill="#0f0f0f" stroke-width="0"/>
          </g>
        </g>
      </a>
      <a xlink:href="https://docs.withknown.com/en/latest/plugins/community/">
        <g isolation="isolate">
          <g isolation="isolate">
            <path d="M89.77,1862.13c-.9,0-1.67-.32-2.31-.96-.64-.64-.96-1.42-.96-2.34s.32-1.75.96-2.38,1.4-.95,2.28-.95,1.67.32,2.29.95.94,1.43.94,2.42c0,.92-.31,1.69-.94,2.32-.63.63-1.39.95-2.27.95Z" fill="#0f0f0f" stroke-width="0"/>
            <path d="M104.89,1869v-21h3.6v9.57l9.15-9.57h4.35l-9.99,10.11,10.41,10.89h-4.8l-9.12-9.81v9.81h-3.6Z" fill="#0f0f0f" stroke-width="0"/>
            <path d="M124.48,1869v-15.03h3.42v2.43c.56-.86,1.24-1.52,2.05-1.98s1.71-.69,2.69-.69c1.04,0,1.95.23,2.73.69.78.46,1.39,1.08,1.83,1.88.44.79.66,1.71.66,2.78v9.93h-3.36v-8.94c0-1.1-.3-1.97-.9-2.62-.6-.65-1.41-.97-2.43-.97-.66,0-1.27.15-1.84.45s-1.05.76-1.42,1.38v10.71h-3.42Z" fill="#0f0f0f" stroke-width="0"/>
            <path d="M148.84,1869.27c-1.44,0-2.73-.34-3.87-1.02s-2.04-1.61-2.7-2.79c-.66-1.18-.99-2.5-.99-3.96s.33-2.8.99-3.97c.66-1.17,1.56-2.1,2.7-2.78s2.43-1.02,3.87-1.02,2.72.34,3.85,1.02c1.13.68,2.02,1.61,2.68,2.78.66,1.17.99,2.49.99,3.94s-.33,2.81-.99,3.99c-.66,1.18-1.56,2.11-2.68,2.79-1.13.68-2.42,1.02-3.85,1.02ZM148.84,1866.39c.82,0,1.54-.21,2.17-.64.63-.43,1.12-1.01,1.48-1.75.36-.74.54-1.57.54-2.49s-.18-1.77-.54-2.5c-.36-.73-.85-1.31-1.48-1.74-.63-.43-1.35-.64-2.17-.64s-1.55.21-2.19.64c-.64.43-1.14,1.01-1.5,1.74-.36.73-.54,1.57-.54,2.5s.18,1.75.54,2.49c.36.74.86,1.33,1.5,1.75.64.43,1.37.64,2.19.64Z" fill="#0f0f0f" stroke-width="0"/>
            <path d="M162.22,1869l-4.08-15.03h3.24l2.67,10.59,3.09-10.59h2.88l3.12,10.56,2.61-10.56h3.15l-4.05,15.03h-3.24l-3.06-10.59-3.03,10.59h-3.3Z" fill="#0f0f0f" stroke-width="0"/>
            <path d="M181.66,1869v-15.03h3.42v2.43c.56-.86,1.24-1.52,2.05-1.98s1.71-.69,2.69-.69c1.04,0,1.95.23,2.73.69.78.46,1.39,1.08,1.83,1.88.44.79.66,1.71.66,2.78v9.93h-3.36v-8.94c0-1.1-.3-1.97-.9-2.62-.6-.65-1.41-.97-2.43-.97-.66,0-1.27.15-1.84.45s-1.05.76-1.42,1.38v10.71h-3.42Z" fill="#0f0f0f" stroke-width="0"/>
            <path d="M102.37,1876.5v-3h94.68v3h-94.68Z" fill="#0f0f0f" stroke-width="0"/>
          </g>
        </g>
      </a>
      <g isolation="isolate">
        <text transform="translate(64 1669)" fill="#0f0f0f" font-family="RedHatText-Light, &apos;Red Hat Text&apos;" font-size="30" font-variation-settings="&apos;wght&apos; 300" font-weight="300" isolation="isolate"><tspan x="0" y="0" letter-spacing="-.09em">T</tspan><tspan x="15.42" y="0">a</tspan><tspan x="30.78" y="0" letter-spacing="-.04em">k</tspan><tspan x="43.35" y="0" letter-spacing="0em">e a look </tspan><tspan x="150.84" y="0" letter-spacing="-.02em">a</tspan><tspan x="165.75" y="0">t some </tspan><tspan x="262.11" y="0" letter-spacing="-.03em">o</tspan><tspan x="278.52" y="0">f </tspan></text>
        <text transform="translate(64 1709)" fill="#0f0f0f" font-family="RedHatText-Light, &apos;Red Hat Text&apos;" font-size="30" font-variation-settings="&apos;wght&apos; 300" font-weight="300" isolation="isolate"><tspan x="0" y="0">the plugins </tspan><tspan x="148.86" y="0" letter-spacing="0em">a</tspan><tspan x="163.92" y="0" letter-spacing="-.02em">v</tspan><tspan x="177.63" y="0">ailable! </tspan></text>
      </g>
      <rect x="490" y="1584" width="450" height="349" fill="#ffb100" stroke-width="0"/>
      <g isolation="isolate">
        <text transform="translate(554 1669)" fill="#0f0f0f" font-family="RedHatText-Light, &apos;Red Hat Text&apos;" font-size="30" font-variation-settings="&apos;wght&apos; 300" font-weight="300" isolation="isolate"><tspan x="0" y="0">G</tspan><tspan x="23.91" y="0" letter-spacing="-.02em">e</tspan><tspan x="39.9" y="0" letter-spacing="0em">t </tspan><tspan x="57.6" y="0" letter-spacing="-.02em">s</tspan><tspan x="70.08" y="0">tar</tspan><tspan x="105.84" y="0" letter-spacing="-.02em">t</tspan><tspan x="115.95" y="0" letter-spacing="0em">ed </tspan><tspan x="156.54" y="0" letter-spacing="-.02em">b</tspan><tspan x="173.1" y="0">y </tspan><tspan x="194.49" y="0" letter-spacing="-.03em">f</tspan><tspan x="204.12" y="0">oll</tspan><tspan x="233.64" y="0" letter-spacing="0em">o</tspan><tspan x="250.5" y="0">wing </tspan></text>
        <text transform="translate(862.09 1709)" fill="#0f0f0f" font-family="RedHatText-Light, &apos;Red Hat Text&apos;" font-size="30" font-variation-settings="&apos;wght&apos; 300" font-weight="300" isolation="isolate"><tspan x="0" y="0"> </tspan></text>
        <text transform="translate(554 1749)" fill="#0f0f0f" font-family="RedHatText-Light, &apos;Red Hat Text&apos;" font-size="30" font-variation-settings="&apos;wght&apos; 300" font-weight="300" isolation="isolate"><tspan x="0" y="0">or </tspan><tspan x="34.14" y="0" letter-spacing="-.03em">f</tspan><tspan x="43.77" y="0">or </tspan></text>
        <text transform="translate(735.35 1749)" fill="#0f0f0f" font-family="RedHatText-Light, &apos;Red Hat Text&apos;" font-size="30" font-variation-settings="&apos;wght&apos; 300" font-weight="300" isolation="isolate"><tspan x="0" y="0"> </tspan></text>
        <text transform="translate(554 1789)" fill="#0f0f0f" font-family="RedHatText-Light, &apos;Red Hat Text&apos;" font-size="30" font-variation-settings="&apos;wght&apos; 300" font-weight="300" isolation="isolate"><tspan x="0" y="0">(</tspan></text>
        <text transform="translate(811.46 1869)" fill="#0f0f0f" font-family="RedHatText-Light, &apos;Red Hat Text&apos;" font-size="30" font-variation-settings="&apos;wght&apos; 300" font-weight="300" isolation="isolate"><tspan x="0" y="0">). </tspan></text>
      </g>
      <g isolation="isolate">
        <a xlink:href="https://indieweb.org/Tutorial_Set_up_an_Indie_Website_using_Blogger">
          <text transform="translate(554 1709)" fill="#0f0f0f" font-family="RedHatTextRoman-SemiBold, &apos;Red Hat Text&apos;" font-size="30" font-variation-settings="&apos;wght&apos; 600" font-weight="600" isolation="isolate" text-decoration="underline"><tspan x="0" y="0">this guide </tspan><tspan x="144.09" y="0" letter-spacing="-.02em">f</tspan><tspan x="155.82" y="0" letter-spacing="0em">or Blogger</tspan></text>
        </a>
      </g>
      <a xlink:href="https://indieweb.org/Tumblr">
        <g isolation="isolate">
          <text transform="translate(633.6 1749)" fill="#0f0f0f" font-family="RedHatTextRoman-SemiBold, &apos;Red Hat Text&apos;" font-size="30" font-variation-settings="&apos;wght&apos; 600" font-weight="600" isolation="isolate" text-decoration="underline"><tspan x="0" y="0" letter-spacing="-.04em">T</tspan><tspan x="18" y="0" letter-spacing="0em">umblr</tspan></text>
        </g>
      </a>
      <g isolation="isolate">
        <text transform="translate(565.66 1789)" fill="#0f0f0f" font-family="RedHatText-LightItalic, &apos;Red Hat Text&apos;" font-size="30" font-style="italic" font-variation-settings="&apos;wght&apos; 300" font-weight="300" isolation="isolate"><tspan x="0" y="0">ma</tspan><tspan x="39.39" y="0" letter-spacing="-.03em">k</tspan><tspan x="52.02" y="0" letter-spacing="0em">e su</tspan><tspan x="103.77" y="0" letter-spacing="-.01em">r</tspan><tspan x="112.92" y="0">e </tspan><tspan x="136.14" y="0" letter-spacing="0em">y</tspan><tspan x="149.85" y="0">ou </tspan></text>
        <text transform="translate(662.97 1869)" fill="#0f0f0f" font-family="RedHatText-LightItalic, &apos;Red Hat Text&apos;" font-size="30" font-style="italic" font-variation-settings="&apos;wght&apos; 300" font-weight="300" isolation="isolate"><tspan x="0" y="0"> </tspan><tspan x="7.14" y="0" letter-spacing="-.02em">f</tspan><tspan x="16.86" y="0">or</tspan><tspan x="43.26" y="0" letter-spacing="-.02em"> </tspan><tspan x="49.8" y="0" letter-spacing="-.05em">T</tspan><tspan x="66.21" y="0">umblr!</tspan></text>
      </g>
      <a xlink:href="https://help.tumblr.com/privacy-options/#h_01HQP3KFE5TB8MQE0JRW29W86T">
        <g isolation="isolate">
          <g isolation="isolate">
            <text transform="translate(759.49 1789)" fill="#0f0f0f" font-family="RedHatTextItalic-Regular, &apos;Red Hat Text&apos;" font-size="30" font-variation-settings="&apos;wght&apos; 400" isolation="isolate" text-decoration="underline"><tspan x="0" y="0">di</tspan><tspan x="23.73" y="0" letter-spacing="0em">s</tspan><tspan x="37.17" y="0" xml:space="preserve" letter-spacing="0em">able </tspan></text>
            <text transform="translate(554 1829)" fill="#0f0f0f" font-family="RedHatTextItalic-Regular, &apos;Red Hat Text&apos;" font-size="30" font-variation-settings="&apos;wght&apos; 400" isolation="isolate" text-decoration="underline"><tspan x="0" y="0">AI t</tspan><tspan x="44.94" y="0" letter-spacing="-.02em">r</tspan><tspan x="54.66" y="0">aining on </tspan><tspan x="180.15" y="0" letter-spacing="0em">y</tspan><tspan x="194.52" y="0" xml:space="preserve">our </tspan></text>
          </g>
          <text transform="translate(554 1869)" fill="#0f0f0f" font-family="RedHatTextItalic-Regular, &apos;Red Hat Text&apos;" font-size="30" font-variation-settings="&apos;wght&apos; 400" isolation="isolate" text-decoration="underline"><tspan x="0" y="0" letter-spacing="-.01em">c</tspan><tspan x="14.46" y="0">o</tspan><tspan x="31.56" y="0" letter-spacing="-.02em">n</tspan><tspan x="47.37" y="0" letter-spacing="0em">t</tspan><tspan x="58.2" y="0">e</tspan><tspan x="74.55" y="0" letter-spacing="-.02em">n</tspan><tspan x="90.36" y="0">t</tspan></text>
        </g>
      </a>
      <rect y="976" width="614" height="189" fill="#ffb100" stroke-width="0"/>
      <g isolation="isolate">
        <text transform="translate(64 1061)" fill="#0f0f0f" font-family="RedHatText-Light, &apos;Red Hat Text&apos;" font-size="30" font-variation-settings="&apos;wght&apos; 300" font-weight="300" isolation="isolate"><tspan x="0" y="0">Check out</tspan></text>
        <text transform="translate(358.35 1061)" fill="#0f0f0f" font-family="RedHatText-Light, &apos;Red Hat Text&apos;" font-size="30" font-variation-settings="&apos;wght&apos; 300" font-weight="300" isolation="isolate"><tspan x="0" y="0" xml:space="preserve"> or </tspan></text>
        <text transform="translate(504.45 1061)" fill="#0f0f0f" font-family="RedHatText-Light, &apos;Red Hat Text&apos;" font-size="30" font-variation-settings="&apos;wght&apos; 300" font-weight="300" isolation="isolate"><tspan x="0" y="0">, </tspan></text>
        <text transform="translate(64 1101)" fill="#0f0f0f" font-family="RedHatText-Light, &apos;Red Hat Text&apos;" font-size="30" font-variation-settings="&apos;wght&apos; 300" font-weight="300" isolation="isolate"><tspan x="0" y="0">which s</tspan><tspan x="93.81" y="0" letter-spacing="-.01em">e</tspan><tspan x="109.8" y="0" letter-spacing="0em">t</tspan><tspan x="120.66" y="0">s </tspan><tspan x="140.88" y="0" letter-spacing="-.02em">ev</tspan><tspan x="170.73" y="0" letter-spacing="0em">e</tspan><tspan x="187.17" y="0" letter-spacing="0em">r</tspan><tspan x="197.31" y="0" letter-spacing=".02em">y</tspan><tspan x="212" y="0">thing up </tspan><tspan x="325.16" y="0" letter-spacing="-.02em">f</tspan><tspan x="334.79" y="0">or </tspan><tspan x="368.93" y="0" letter-spacing="-.02em">y</tspan><tspan x="382.73" y="0" letter-spacing="0em">ou</tspan></text>
      </g>
      <a xlink:href="https://micro.blog">
        <g isolation="isolate">
          <text transform="translate(207.32 1061)" fill="#0f0f0f" font-family="RedHatTextRoman-SemiBold, &apos;Red Hat Text&apos;" font-size="30" font-variation-settings="&apos;wght&apos; 600" font-weight="600" isolation="isolate" text-decoration="underline"><tspan x="0" y="0">mic</tspan><tspan x="49.53" y="0" letter-spacing="-.02em">r</tspan><tspan x="60.63" y="0" letter-spacing="-.02em">o</tspan><tspan x="77.94" y="0">.blog</tspan></text>
        </g>
      </a>
      <g isolation="isolate">
        <text transform="translate(200.88 1061)" fill="#0f0f0f" font-family="RedHatText-Light, &apos;Red Hat Text&apos;" font-size="30" font-variation-settings="&apos;wght&apos; 300" font-weight="300" isolation="isolate" text-decoration="underline"><tspan x="0" y="0"> </tspan></text>
      </g>
      <a xlink:href="https://omg.lol">
        <g isolation="isolate">
          <text transform="translate(399.36 1061)" fill="#0f0f0f" font-family="RedHatTextRoman-SemiBold, &apos;Red Hat Text&apos;" font-size="30" font-variation-settings="&apos;wght&apos; 600" font-weight="600" isolation="isolate" text-decoration="underline"><tspan x="0" y="0">omg.lol</tspan></text>
        </g>
      </a>
      <rect x="980" y="1963" width="614" height="213" fill="#ffb100" stroke-width="0"/>
      <g isolation="isolate">
        <text transform="translate(1044 2040)" fill="#0f0f0f" font-family="RedHatText-Light, &apos;Red Hat Text&apos;" font-size="30" font-variation-settings="&apos;wght&apos; 300" font-weight="300" isolation="isolate"><tspan x="0" y="0" letter-spacing="-.02em">R</tspan><tspan x="18.21" y="0" letter-spacing="0em">e</tspan><tspan x="34.35" y="0">ad docume</tspan><tspan x="180.39" y="0" letter-spacing="-.02em">n</tspan><tspan x="195.99" y="0" letter-spacing="0em">t</tspan><tspan x="206.55" y="0" letter-spacing="-.02em">a</tspan><tspan x="221.46" y="0">tion on the </tspan></text>
        <text transform="translate(1237.45 2080)" fill="#0f0f0f" font-family="RedHatText-Light, &apos;Red Hat Text&apos;" font-size="30" font-variation-settings="&apos;wght&apos; 300" font-weight="300" isolation="isolate"><tspan x="0" y="0" xml:space="preserve"> and </tspan><tspan x="62.7" y="0" letter-spacing="-.03em">f</tspan><tspan x="72.33" y="0">oll</tspan><tspan x="101.85" y="0" letter-spacing="0em">o</tspan><tspan x="118.71" y="0" letter-spacing="0em">w the </tspan><tspan x="196.32" y="0" letter-spacing="-.02em">s</tspan><tspan x="208.8" y="0" letter-spacing="-.01em">t</tspan><tspan x="218.91" y="0" letter-spacing="0em">eps </tspan></text>
        <text transform="translate(1044 2120)" fill="#0f0f0f" font-family="RedHatText-Light, &apos;Red Hat Text&apos;" font-size="30" font-variation-settings="&apos;wght&apos; 300" font-weight="300" isolation="isolate"><tspan x="0" y="0">on </tspan></text>
        <text transform="translate(1300.46 2120)" fill="#0f0f0f" font-family="RedHatText-Light, &apos;Red Hat Text&apos;" font-size="30" font-variation-settings="&apos;wght&apos; 300" font-weight="300" isolation="isolate"><tspan x="0" y="0">!</tspan></text>
      </g>
      <a xlink:href="https://indiewebify.me/">
        <g isolation="isolate">
          <text transform="translate(1084.66 2120)" fill="#0f0f0f" font-family="RedHatTextRoman-SemiBold, &apos;Red Hat Text&apos;" font-size="30" font-variation-settings="&apos;wght&apos; 600" font-weight="600" isolation="isolate" text-decoration="underline"><tspan x="0" y="0">indi</tspan><tspan x="50.88" y="0" letter-spacing="0em">ew</tspan><tspan x="89.58" y="0">ebi</tspan><tspan x="132.66" y="0" letter-spacing="0em">f</tspan><tspan x="145.2" y="0" letter-spacing="-.07em">y</tspan><tspan x="159.3" y="0">.me</tspan></text>
        </g>
      </a>
      <a xlink:href="https://indieweb.org/Getting_Started">
        <g isolation="isolate">
          <text transform="translate(1044 2080)" fill="#0f0f0f" font-family="RedHatTextRoman-SemiBold, &apos;Red Hat Text&apos;" font-size="30" font-variation-settings="&apos;wght&apos; 600" font-weight="600" isolation="isolate" text-decoration="underline"><tspan x="0" y="0">Indi</tspan><tspan x="51.66" y="0" letter-spacing="-.03em">e</tspan><tspan x="68.1" y="0" letter-spacing="-.04em">W</tspan><tspan x="94.98" y="0">eb wiki</tspan></text>
        </g>
      </a>
      <g isolation="isolate">
        <text transform="translate(1123.42 1919)" fill="#0f0f0f" font-family="RedHatText-Light, &apos;Red Hat Text&apos;" font-size="30" font-variation-settings="&apos;wght&apos; 300" font-weight="300" isolation="isolate"><tspan x="0" y="0">I</tspan><tspan x="7.08" y="0" letter-spacing="-.01em">’</tspan><tspan x="14.13" y="0" letter-spacing="0em">m </tspan><tspan x="46.11" y="0" letter-spacing="-.02em">c</tspan><tspan x="60.69" y="0">o</tspan><tspan x="77.85" y="0" letter-spacing="-.02em">m</tspan><tspan x="102.24" y="0" letter-spacing="-.03em">f</tspan><tspan x="111.87" y="0">ortable with </tspan><tspan x="271.76" y="0" letter-spacing="-.02em">c</tspan><tspan x="286.34" y="0" letter-spacing="0em">ode</tspan></text>
      </g>
      <rect x="980" y="1585" width="464" height="269" fill="#ffb100" stroke-width="0"/>
      <g isolation="isolate">
        <text transform="translate(1044 1670)" fill="#0f0f0f" font-family="RedHatText-Light, &apos;Red Hat Text&apos;" font-size="30" font-variation-settings="&apos;wght&apos; 300" font-weight="300" isolation="isolate"><tspan x="0" y="0">One </tspan><tspan x="63.87" y="0" letter-spacing="-.03em">o</tspan><tspan x="80.28" y="0">f the b</tspan><tspan x="165" y="0" letter-spacing="0em">e</tspan><tspan x="181.59" y="0" letter-spacing="-.02em">s</tspan><tspan x="194.07" y="0">t sp</tspan><tspan x="241.85" y="0" letter-spacing="-.03em">o</tspan><tspan x="258.26" y="0" letter-spacing=".01em">t</tspan><tspan x="269.12" y="0">s </tspan><tspan x="289.34" y="0" letter-spacing="-.01em">t</tspan><tspan x="299.45" y="0">o</tspan></text>
        <text transform="translate(1044 1710)" fill="#0f0f0f" font-family="RedHatText-Light, &apos;Red Hat Text&apos;" font-size="30" font-variation-settings="&apos;wght&apos; 300" font-weight="300" isolation="isolate"><tspan x="0" y="0">begin is on </tspan></text>
        <text transform="translate(1326.07 1710)" fill="#0f0f0f" font-family="RedHatText-Light, &apos;Red Hat Text&apos;" font-size="30" font-variation-settings="&apos;wght&apos; 300" font-weight="300" isolation="isolate"><tspan x="0" y="0">,</tspan></text>
        <text transform="translate(1044 1750)" fill="#0f0f0f" font-family="RedHatText-Light, &apos;Red Hat Text&apos;" font-size="30" font-variation-settings="&apos;wght&apos; 300" font-weight="300" isolation="isolate"><tspan x="0" y="0">I pe</tspan><tspan x="47.67" y="0" letter-spacing="-.01em">r</tspan><tspan x="57.21" y="0">sonally </tspan><tspan x="152.61" y="0" letter-spacing="-.03em">r</tspan><tspan x="161.4" y="0" letter-spacing="0em">e</tspan><tspan x="177.54" y="0">ally </tspan></text>
        <text transform="translate(1183.01 1790)" fill="#0f0f0f" font-family="RedHatText-Light, &apos;Red Hat Text&apos;" font-size="30" font-variation-settings="&apos;wght&apos; 300" font-weight="300" isolation="isolate"><tspan x="0" y="0">.</tspan></text>
      </g>
      <g isolation="isolate">
        <a xlink:href="https://www.neocities.org">
          <text transform="translate(1191.63 1710)" fill="#0f0f0f" font-family="RedHatTextRoman-SemiBold, &apos;Red Hat Text&apos;" font-size="30" font-variation-settings="&apos;wght&apos; 600" font-weight="600" isolation="isolate" text-decoration="underline"><tspan x="0" y="0">N</tspan><tspan x="22.83" y="0" letter-spacing="0em">e</tspan><tspan x="40.08" y="0">ociti</tspan><tspan x="101.22" y="0" letter-spacing="0em">e</tspan><tspan x="118.56" y="0">s</tspan></text>
        </a>
      </g>
      <a xlink:href="https://melonking.net/melon?z=/thoughts/lets-make">
        <g isolation="isolate">
          <g isolation="isolate">
            <text transform="translate(1274.39 1750)" fill="#0f0f0f" font-family="RedHatTextRoman-SemiBold, &apos;Red Hat Text&apos;" font-size="30" font-variation-settings="&apos;wght&apos; 600" font-weight="600" isolation="isolate" text-decoration="underline"><tspan x="0" y="0">l</tspan><tspan x="7.56" y="0" letter-spacing="-.02em">ov</tspan><tspan x="40.83" y="0" xml:space="preserve">e </tspan></text>
            <text transform="translate(1044 1790)" fill="#0f0f0f" font-family="RedHatTextRoman-SemiBold, &apos;Red Hat Text&apos;" font-size="30" font-variation-settings="&apos;wght&apos; 600" font-weight="600" isolation="isolate" text-decoration="underline"><tspan x="0" y="0">this guide</tspan></text>
          </g>
        </g>
      </a>
      <g isolation="isolate">
        <text transform="translate(195.14 368)" fill="#0f0f0f" font-family="RedHatText-Light, &apos;Red Hat Text&apos;" font-size="30" font-variation-settings="&apos;wght&apos; 300" font-weight="300" isolation="isolate"><tspan x="0" y="0">I </tspan><tspan x="14.22" y="0" letter-spacing="0em">w</tspan><tspan x="34.35" y="0">a</tspan><tspan x="49.71" y="0" letter-spacing="-.02em">n</tspan><tspan x="65.31" y="0">t an indie </tspan><tspan x="190.56" y="0" letter-spacing="-.02em">v</tspan><tspan x="204.42" y="0" letter-spacing="0em">e</tspan><tspan x="220.86" y="0" letter-spacing="-.01em">r</tspan><tspan x="230.4" y="0" letter-spacing="0em">sion</tspan></text>
        <text transform="translate(155.46 408)" fill="#0f0f0f" font-family="RedHatText-Light, &apos;Red Hat Text&apos;" font-size="30" font-variation-settings="&apos;wght&apos; 300" font-weight="300" isolation="isolate"><tspan x="0" y="0" letter-spacing="-.02em">o</tspan><tspan x="16.41" y="0" letter-spacing="0em">f social media pl</tspan><tspan x="224.22" y="0" letter-spacing="-.02em">a</tspan><tspan x="239.12" y="0" letter-spacing=".01em">t</tspan><tspan x="249.98" y="0" letter-spacing="-.03em">f</tspan><tspan x="259.61" y="0">orms</tspan></text>
        <text transform="translate(256.5 448)" fill="#0f0f0f" font-family="RedHatText-Light, &apos;Red Hat Text&apos;" font-size="30" font-variation-settings="&apos;wght&apos; 300" font-weight="300" isolation="isolate"><tspan x="0" y="0">th</tspan><tspan x="26.61" y="0" letter-spacing="-.02em">a</tspan><tspan x="41.52" y="0" letter-spacing="0em">t I al</tspan><tspan x="94.98" y="0" letter-spacing="-.03em">r</tspan><tspan x="103.77" y="0" letter-spacing="0em">e</tspan><tspan x="119.91" y="0">ady use!</tspan></text>
      </g>
      <g isolation="isolate">
        <text transform="translate(1108 368)" fill="#0f0f0f" font-family="RedHatText-Light, &apos;Red Hat Text&apos;" font-size="30" font-variation-settings="&apos;wght&apos; 300" font-weight="300" isolation="isolate"><tspan x="0" y="0">I </tspan><tspan x="14.22" y="0" letter-spacing="0em">w</tspan><tspan x="34.35" y="0">a</tspan><tspan x="49.71" y="0" letter-spacing="-.02em">n</tspan><tspan x="65.31" y="0">t </tspan><tspan x="83.01" y="0" letter-spacing="-.01em">m</tspan><tspan x="107.55" y="0">y </tspan><tspan x="128.94" y="0" letter-spacing="0em">o</tspan><tspan x="145.8" y="0">wn </tspan></text>
        <text transform="translate(1108 408)" fill="#0f0f0f" font-family="RedHatText-Light, &apos;Red Hat Text&apos;" font-size="30" font-variation-settings="&apos;wght&apos; 300" font-weight="300" isolation="isolate"><tspan x="0" y="0" letter-spacing="0em">w</tspan><tspan x="19.98" y="0" letter-spacing="0em">ebsi</tspan><tspan x="72.69" y="0" letter-spacing="-.02em">t</tspan><tspan x="82.8" y="0" letter-spacing="0em">e!</tspan></text>
      </g>
      <g isolation="isolate">
        <text transform="translate(804.65 968)" fill="#0f0f0f" font-family="RedHatText-Light, &apos;Red Hat Text&apos;" font-size="30" font-variation-settings="&apos;wght&apos; 300" font-weight="300" isolation="isolate"><tspan x="0" y="0">Pl</tspan><tspan x="25.35" y="0" letter-spacing="0em">e</tspan><tspan x="41.49" y="0">as</tspan><tspan x="69.93" y="0" letter-spacing="-.02em">e</tspan><tspan x="85.62" y="0">, ju</tspan><tspan x="122.49" y="0" letter-spacing="-.02em">s</tspan><tspan x="134.97" y="0" letter-spacing="0em">t do it </tspan></text>
        <text transform="translate(927.87 1008)" fill="#0f0f0f" font-family="RedHatText-Light, &apos;Red Hat Text&apos;" font-size="30" font-variation-settings="&apos;wght&apos; 300" font-weight="300" isolation="isolate"><tspan x="0" y="0" letter-spacing="-.03em">f</tspan><tspan x="9.63" y="0">or me!</tspan></text>
      </g>
      <g isolation="isolate">
        <text transform="translate(1058.92 1199.5)" fill="#0f0f0f" font-family="RedHatText-Light, &apos;Red Hat Text&apos;" font-size="30" font-variation-settings="&apos;wght&apos; 300" font-weight="300" isolation="isolate"><tspan x="0" y="0">I </tspan><tspan x="14.22" y="0" letter-spacing="0em">w</tspan><tspan x="34.35" y="0">a</tspan><tspan x="49.71" y="0" letter-spacing="-.02em">n</tspan><tspan x="65.31" y="0">t </tspan><tspan x="83.01" y="0" letter-spacing="-.02em">t</tspan><tspan x="93.12" y="0">o </tspan></text>
        <text transform="translate(980.26 1239.5)" fill="#0f0f0f" font-family="RedHatText-Light, &apos;Red Hat Text&apos;" font-size="30" font-variation-settings="&apos;wght&apos; 300" font-weight="300" isolation="isolate"><tspan x="0" y="0">cu</tspan><tspan x="31.08" y="0" letter-spacing="-.02em">s</tspan><tspan x="43.56" y="0" letter-spacing="-.02em">t</tspan><tspan x="53.67" y="0" letter-spacing="0em">omise and </tspan></text>
        <text transform="translate(1008.91 1279.5)" fill="#0f0f0f" font-family="RedHatText-Light, &apos;Red Hat Text&apos;" font-size="30" font-variation-settings="&apos;wght&apos; 300" font-weight="300" isolation="isolate"><tspan x="0" y="0">tin</tspan><tspan x="32.79" y="0" letter-spacing="-.04em">k</tspan><tspan x="45.36" y="0">er a blog</tspan></text>
      </g>
      <g isolation="isolate">
        <text transform="translate(1057.79 1542)" fill="#0f0f0f" font-family="RedHatText-Light, &apos;Red Hat Text&apos;" font-size="30" font-variation-settings="&apos;wght&apos; 300" font-weight="300" isolation="isolate"><tspan x="0" y="0">I </tspan><tspan x="14.22" y="0" letter-spacing="0em">w</tspan><tspan x="34.35" y="0">a</tspan><tspan x="49.71" y="0" letter-spacing="-.02em">n</tspan><tspan x="65.31" y="0">t </tspan><tspan x="83.01" y="0" letter-spacing="-.02em">t</tspan><tspan x="93.12" y="0">o t</tspan><tspan x="127.98" y="0" letter-spacing="0em">r</tspan><tspan x="138.12" y="0" letter-spacing="0em">y </tspan><tspan x="159.51" y="0" letter-spacing="-.02em">c</tspan><tspan x="174.09" y="0" letter-spacing="0em">oding!</tspan></text>
      </g>
      <g isolation="isolate">
        <text transform="translate(205 1511)" fill="#0f0f0f" font-family="RedHatText-Light, &apos;Red Hat Text&apos;" font-size="30" font-variation-settings="&apos;wght&apos; 300" font-weight="300" isolation="isolate"><tspan x="0" y="0" letter-spacing="-.1em">Y</tspan><tspan x="15.63" y="0" letter-spacing="0em">e</tspan><tspan x="32.22" y="0">s</tspan></text>
      </g>
      <g isolation="isolate">
        <text transform="translate(644.42 1511)" fill="#0f0f0f" font-family="RedHatText-Light, &apos;Red Hat Text&apos;" font-size="30" font-variation-settings="&apos;wght&apos; 300" font-weight="300" isolation="isolate"><tspan x="0" y="0">No</tspan></text>
      </g>
      <path d="M799,297.46v2h2v-2h-2ZM528,297.46v-2h-2v2h2ZM528,514l11.55-20h-23.09l11.55,20ZM797,180v117.46h4v-117.46h-4ZM799,295.46h-271v4h271v-4ZM526,297.46v198.54h4v-198.54h-4Z" fill="#0f0f0f" stroke-width="0"/>
      <path d="M1070,1061v2h2v-2h-2ZM614,1061l20,11.55v-23.1l-20,11.55ZM1068,818v243h4v-243h-4ZM1070,1059h-438v4h438v-4Z" fill="#0f0f0f" stroke-width="0"/>
      <path d="M1217,1329v2h2v-2h-2ZM940,1329l20,11.55v-23.1l-20,11.55ZM1215,818v511h4v-511h-4ZM1217,1327h-259v4h259v-4Z" fill="#0f0f0f" stroke-width="0"/>
      <path d="M1504,1963l11.55-20h-23.1l11.55,20ZM1502,818v1127h4V818h-4Z" fill="#0f0f0f" stroke-width="0"/>
      <path d="M1354,1585l11.55-20h-23.1l11.55,20ZM1352,818v749h4v-749h-4Z" fill="#0f0f0f" stroke-width="0"/>
      <path d="M727,1584l11.55-20h-23.09l11.55,20ZM725,1445v121h4v-121h-4Z" fill="#0f0f0f" stroke-width="0"/>
      <path d="M164,1396h-2v-2h2v2ZM164,1584l-11.55-20h23.09l-11.55,20ZM327,1398h-163v-4h163v4ZM166,1396v170h-4v-170h4Z" fill="#0f0f0f" stroke-width="0"/>
      <path d="M799,297.46v2h-2v-2h2ZM1070,297.46v-2h2v2h-2ZM1070,637.5l-11.55-20h23.1l-11.55,20ZM801,180v117.46h-4v-117.46h4ZM799,295.46h271v4h-271v-4ZM1072,297.46v322.04h-4v-322.04h4Z" fill="#0f0f0f" stroke-width="0"/>
    </g>
  </g>
</svg>