<svg width="752" height="714" viewBox="0 0 752 714" fill="none" xmlns="http://www.w3.org/2000/svg">
<rect width="127.417" height="127.417" transform="matrix(-0.707107 0.707107 0.707107 0.707107 226.357 0)" fill="#FF0000"/>
<rect width="94.3013" height="94.3013" transform="matrix(-0.707107 0.707107 0.707107 0.707107 685.319 225.276)" fill="#FF0000"/>
<rect width="97.2102" height="97.2102" transform="matrix(-0.224461 0.974483 0.974483 0.224461 569.842 508.238)" fill="#FF0000"/>
<rect width="84.2258" height="84.2258" transform="matrix(-0.219141 0.975693 0.975693 0.219141 162.758 565.201)" fill="#FF0000"/>
<rect width="84.2258" height="84.2258" transform="matrix(-0.219141 0.975693 0.975693 0.219141 62.2197 259.092)" fill="#FF0000"/>
<path d="M55.6902 224.086L131.981 145.551L161.403 252.594L55.6902 224.086Z" fill="#FF5C00"/>
<path d="M414.538 91.9618L490.829 13.4271L520.251 120.47L414.538 91.9618Z" fill="#FF5C00"/>
<path d="M618.928 461.453L695.218 382.919L724.641 489.962L618.928 461.453Z" fill="#FF5C00"/>
<path d="M324.412 712.594L277.492 637.41L367.318 635.049L324.412 712.594Z" fill="#FF5C00"/>
<ellipse cx="89.5135" cy="407.535" rx="89.5135" ry="88.7676" fill="#FFB100"/>
<ellipse cx="613.914" cy="163.362" rx="71.3622" ry="70.8649" fill="#FFB100"/>
<ellipse cx="370.238" cy="62.1624" rx="48.9838" ry="48.7351" fill="#FFB100"/>
<ellipse cx="467.211" cy="657.179" rx="54.9514" ry="54.4541" fill="#FFB100"/>
<path d="M99.9892 476.92L179.541 515.98L104.513 565.428L99.9892 476.92Z" fill="#FF5C00"/>
</svg>
